<?xml version="1.0" standalone="no"?>
<!DOCTYPE svg PUBLIC "-//W3C//DTD SVG 20010904//EN"
 "http://www.w3.org/TR/2001/REC-SVG-20010904/DTD/svg10.dtd">
<svg version="1.0" xmlns="http://www.w3.org/2000/svg"
 width="2133.000000pt" height="2133.000000pt" viewBox="0 0 2133.000000 2133.000000"
 preserveAspectRatio="xMidYMid meet">

<g transform="translate(0.000000,2133.000000) scale(0.100000,-0.100000)"
fill="#000000" stroke="none">
<path d="M11190 20951 c-14 -27 -13 -43 5 -78 20 -40 39 -55 64 -51 22 3 101
-66 101 -89 0 -16 -1 -16 -36 -3 -26 10 -65 5 -63 -8 3 -21 -3 -23 -19 -5 -9
11 -26 22 -36 24 -20 4 -27 15 -45 64 -20 54 -54 86 -101 97 -104 22 -101 23
-150 -26 -38 -40 -50 -46 -86 -46 -33 0 -48 6 -77 35 -46 45 -67 46 -68 3 -2
-61 -12 -80 -52 -94 -31 -11 -38 -11 -45 2 -5 9 -28 20 -52 25 -34 8 -46 7
-60 -6 -9 -8 -25 -15 -36 -15 -11 0 -24 -10 -29 -22 -8 -19 -19 -24 -62 -26
-38 -2 -55 1 -65 13 -7 9 -21 25 -30 36 -21 22 -23 50 -6 67 17 17 -1 32 -44
35 -40 4 -78 -7 -78 -22 0 -5 32 -41 70 -81 l70 -71 -6 -77 c-6 -73 -5 -78 20
-105 26 -28 33 -47 17 -47 -5 0 -14 7 -21 15 -6 8 -22 17 -33 21 -12 3 -32 15
-44 27 -12 11 -33 25 -45 31 -32 16 -110 171 -102 202 7 28 -3 30 -35 8 -19
-14 -22 -22 -16 -53 4 -20 10 -40 15 -46 4 -5 12 -37 18 -70 6 -33 13 -67 17
-76 15 -39 -70 -26 -121 18 -19 17 -41 72 -47 118 -1 11 -7 27 -12 35 -5 8
-10 20 -10 25 0 6 -19 11 -42 13 -50 4 -56 -10 -14 -28 16 -6 31 -21 34 -32 8
-29 -10 -69 -33 -75 -44 -12 -16 -49 40 -55 46 -4 49 -28 8 -53 -83 -50 -78
-49 -109 -26 -31 23 -49 27 -49 11 0 -19 -40 -50 -64 -50 -16 0 -32 -11 -46
-30 -25 -35 -45 -39 -53 -10 -8 30 -45 25 -105 -13 -10 -7 -11 -12 0 -24 10
-12 9 -18 -6 -29 -11 -7 -22 -11 -26 -9 -4 3 -15 -4 -25 -15 -10 -11 -29 -20
-43 -20 -46 0 -100 -22 -106 -43 -4 -16 -10 -18 -33 -12 -15 4 -33 8 -39 9 -7
1 -19 8 -28 15 -13 11 -16 11 -16 -1 0 -8 5 -19 11 -25 19 -19 3 -42 -23 -36
-51 11 -52 13 -29 35 l23 21 -20 20 c-23 23 -72 17 -72 -8 0 -9 -12 -20 -27
-26 l-28 -11 33 -14 c34 -15 37 -21 22 -44 -8 -12 -13 -13 -27 -3 -58 41 -129
55 -139 28 -4 -8 -12 -15 -20 -15 -8 0 -14 7 -14 15 0 11 -11 15 -36 15 -31 0
-36 -3 -31 -20 6 -23 -1 -25 -28 -6 -28 18 -110 28 -138 15 -19 -9 -23 -17
-21 -50 2 -48 7 -55 24 -34 19 22 36 18 59 -14 28 -39 26 -44 -8 -36 -24 5
-33 2 -45 -18 -21 -31 -55 -46 -90 -40 -20 4 -34 -1 -54 -20 -15 -14 -40 -29
-57 -32 -61 -14 -83 -28 -89 -59 -4 -16 -2 -34 3 -39 13 -13 77 10 100 35 16
17 22 18 40 6 26 -16 26 -23 -1 -42 -12 -9 -19 -18 -16 -22 16 -15 45 -9 70
14 25 23 31 24 90 17 35 -4 74 -7 88 -7 113 3 251 0 278 -4 40 -8 37 -28 -4
-31 -62 -6 -130 -20 -152 -32 -15 -8 -45 -10 -86 -7 -61 6 -150 -4 -164 -19
-4 -3 1 -11 11 -16 29 -16 20 -31 -16 -27 -20 2 -39 -2 -46 -10 -11 -11 -16
-11 -30 2 -22 20 -35 20 -50 2 -14 -16 11 -42 30 -30 7 4 17 0 25 -10 6 -9 20
-17 31 -17 57 -1 135 12 157 26 26 17 71 17 70 0 0 -5 -14 -14 -30 -20 -16 -5
-32 -14 -35 -18 -3 -5 -36 -12 -73 -17 -47 -6 -79 -16 -107 -35 -43 -30 -47
-40 -22 -49 12 -5 14 -9 5 -18 -16 -16 -15 -38 1 -38 18 0 47 33 47 53 0 16
26 26 105 42 71 14 107 30 115 49 4 12 7 24 6 27 -3 14 27 39 38 30 6 -5 25
-3 46 5 19 7 29 13 23 13 -27 2 -11 18 29 30 30 10 43 10 46 2 5 -16 27 -14
42 4 7 8 19 15 26 15 16 0 19 -29 4 -31 -5 -1 -14 -3 -20 -4 -5 -1 -14 -3 -20
-4 -16 -2 -12 -21 6 -28 10 -4 22 1 30 12 7 10 20 15 29 12 18 -8 20 -27 3
-28 -47 -3 -118 -36 -118 -55 0 -14 8 -15 45 -10 29 5 45 3 45 -3 0 -14 -62
-30 -75 -20 -6 4 -17 3 -25 -2 -11 -8 -12 -12 -2 -16 6 -2 12 -9 12 -14 0 -6
-5 -7 -11 -4 -5 4 -27 -4 -47 -18 -20 -14 -55 -28 -77 -32 -56 -10 -168 -59
-213 -93 -20 -16 -55 -34 -78 -40 -22 -7 -60 -30 -85 -52 -49 -44 -64 -46 -64
-7 -1 14 -4 29 -8 33 -4 4 9 24 28 46 19 21 35 43 35 48 0 6 9 10 20 10 10 0
24 9 30 19 12 24 -3 37 -20 16 -9 -11 -17 -11 -36 -3 -25 12 -32 32 -14 43 12
7 14 45 2 45 -18 0 -32 -26 -32 -57 0 -26 -6 -37 -28 -51 -34 -20 -98 -72
-158 -125 -24 -22 -48 -37 -54 -35 -9 3 19 39 92 118 33 35 47 60 21 37 -11
-9 -55 -36 -99 -58 -43 -22 -84 -45 -91 -51 -7 -5 -20 -8 -30 -6 -14 3 -10 9
18 26 20 12 54 44 76 70 29 34 52 51 79 57 45 11 52 36 14 45 -22 5 -25 11
-22 41 2 19 8 36 14 38 6 2 19 12 29 22 20 20 49 25 49 9 0 -5 -8 -10 -18 -10
-10 0 -26 -14 -35 -30 -16 -27 -17 -31 -2 -36 8 -4 28 -4 43 0 15 3 55 11 90
18 81 16 81 25 -3 53 -17 6 -15 8 14 18 38 13 54 37 24 37 -10 0 -31 -7 -47
-15 -15 -8 -36 -15 -45 -15 -23 1 23 38 58 47 14 3 37 14 50 25 18 13 33 17
58 12 18 -3 50 -3 70 1 l38 7 -22 17 c-17 14 -36 17 -89 15 -110 -6 -278 -97
-299 -164 -3 -10 -14 -22 -24 -25 -21 -6 -33 -59 -18 -74 16 -16 -10 -47 -76
-90 -62 -40 -97 -51 -97 -31 0 6 15 19 33 28 45 24 107 89 107 113 0 15 -5 19
-15 15 -13 -4 -14 -2 -5 14 6 11 15 20 20 20 23 0 7 18 -21 24 -45 9 -63 -6
-104 -86 -20 -40 -43 -80 -51 -89 -17 -19 -58 -14 -50 6 3 10 -1 10 -20 1 -13
-6 -24 -15 -24 -19 0 -5 5 -5 10 -2 6 3 10 -1 10 -9 0 -8 -9 -17 -19 -21 -11
-3 -22 -12 -25 -20 -3 -8 -13 -15 -21 -15 -14 0 -13 5 5 28 19 24 20 27 5 30
-44 9 -77 -43 -50 -81 19 -27 20 -67 1 -67 -8 0 -22 -7 -31 -16 -8 -9 -22 -13
-31 -10 -9 4 -18 -3 -24 -19 -5 -14 -14 -25 -20 -25 -6 0 -29 -12 -51 -27 -23
-15 -51 -27 -63 -28 -15 0 -21 -6 -21 -24 0 -16 -8 -27 -24 -33 -17 -6 -21
-13 -16 -26 17 -40 15 -48 -22 -72 -47 -32 -68 -55 -87 -94 -8 -17 -26 -42
-40 -55 -16 -15 -26 -35 -26 -53 0 -31 -8 -43 -56 -92 -40 -40 -53 -76 -27
-76 10 0 24 9 31 20 15 25 44 27 35 3 -4 -10 -9 -20 -12 -23 -27 -23 -69 -89
-59 -92 14 -5 -5 -61 -30 -90 -12 -14 -12 -21 -2 -33 10 -12 9 -20 -4 -39 -15
-23 -14 -25 4 -31 21 -7 25 -22 11 -44 -12 -18 -31 -5 -26 18 3 15 -1 19 -17
16 -26 -5 -35 -18 -48 -67 -6 -21 -16 -41 -24 -45 -22 -14 -46 -74 -40 -100 5
-18 1 -28 -15 -39 -32 -23 -24 -74 13 -74 1 0 20 16 42 36 36 34 39 35 42 15
2 -14 -17 -46 -58 -96 -50 -61 -65 -74 -76 -64 -8 6 -14 18 -14 26 0 40 -76
-71 -85 -124 -8 -46 -32 -113 -49 -133 -7 -8 -18 -35 -25 -60 -7 -25 -21 -61
-31 -81 -11 -20 -33 -90 -51 -155 -28 -108 -30 -127 -23 -204 4 -47 7 -100 6
-119 0 -19 7 -49 16 -65 21 -39 92 -119 110 -127 10 -4 15 -28 17 -90 2 -93
24 -169 88 -314 24 -54 43 -115 47 -152 6 -47 15 -72 36 -99 16 -20 36 -48 44
-62 20 -36 76 -93 83 -85 3 3 3 33 0 67 -3 39 -1 71 6 84 17 32 34 27 29 -8
-6 -42 18 -62 32 -26 10 27 30 36 30 13 0 -8 -7 -28 -16 -46 -19 -39 -20 -59
-5 -130 12 -59 9 -68 -29 -74 -31 -5 -49 -55 -32 -92 6 -14 9 -32 6 -40 -4 -8
1 -26 9 -39 9 -13 19 -41 23 -62 3 -21 10 -44 15 -50 5 -6 4 -34 -3 -65 -10
-49 -8 -67 20 -187 18 -74 32 -141 32 -149 0 -8 8 -22 18 -31 24 -22 46 -112
37 -152 -4 -18 -21 -47 -38 -67 -28 -32 -31 -42 -33 -112 -1 -42 3 -84 8 -94
7 -13 4 -26 -8 -44 -13 -21 -15 -39 -10 -88 5 -54 4 -64 -14 -80 -11 -10 -20
-14 -20 -10 0 5 -5 4 -10 -1 -7 -7 -6 -22 5 -47 8 -20 15 -48 15 -62 0 -31 11
-32 36 -4 14 16 19 36 19 83 0 51 6 73 37 132 33 63 48 79 137 148 56 42 105
85 111 95 5 10 26 28 46 40 31 18 35 25 30 47 -5 19 -2 30 10 39 14 10 18 34
22 126 2 63 8 121 13 130 4 8 4 21 -1 29 -6 9 0 28 15 54 13 23 33 70 45 106
12 36 35 79 51 95 16 17 29 35 29 40 0 4 11 20 24 34 53 56 85 98 111 149 15
29 33 56 40 60 7 4 21 23 31 42 50 93 172 215 217 215 16 1 21 6 19 19 -3 14
1 17 14 12 10 -4 21 -1 25 6 6 9 13 9 32 -1 37 -20 65 -1 59 39 -4 27 2 38 39
76 26 27 52 44 66 44 13 0 23 6 23 13 0 24 66 78 98 81 17 1 35 5 38 9 4 4 18
7 30 7 13 0 35 10 49 23 24 20 25 25 15 51 -9 24 -8 27 3 18 10 -9 13 -4 15
26 4 47 18 61 69 66 32 4 45 0 62 -17 62 -66 85 -71 75 -19 -4 19 2 41 17 67
28 49 36 55 75 55 30 0 64 25 64 48 0 7 9 12 20 12 11 0 20 5 20 10 0 6 -11
10 -25 10 -14 0 -25 -6 -25 -13 0 -8 -14 -14 -35 -15 -29 -2 -35 1 -35 17 0
10 7 21 15 25 8 3 15 1 15 -5 0 -16 45 -6 46 11 2 31 4 32 23 9 l18 -23 14 22
c25 40 55 20 38 -25 -5 -12 -4 -25 1 -28 15 -9 71 -1 82 12 6 7 30 13 54 13
30 0 46 5 53 18 6 9 11 11 11 5 0 -7 18 -24 40 -38 45 -28 49 -44 20 -70 -26
-24 -25 -35 3 -35 26 0 67 48 67 78 0 10 8 26 18 35 10 9 24 32 32 51 7 19 17
33 22 30 4 -3 8 -1 8 5 0 16 37 23 59 12 26 -14 67 21 77 64 l6 30 -31 -32
c-32 -33 -55 -40 -80 -24 -12 8 -12 11 0 23 8 8 22 17 32 21 9 3 22 18 29 32
6 14 19 25 30 25 10 0 21 0 26 1 4 0 11 10 15 22 l9 22 15 -22 c9 -13 21 -23
27 -23 12 0 42 40 38 53 -1 4 5 7 14 7 8 0 13 -4 9 -9 -3 -5 -1 -12 5 -16 5
-3 10 -17 10 -29 0 -13 7 -29 15 -36 12 -10 17 -7 26 16 6 16 11 48 11 70 0
58 41 99 88 89 24 -5 37 -2 53 13 12 11 31 22 41 24 14 2 41 31 41 45 0 1 14
5 30 9 l30 7 -19 -22 -19 -21 42 0 c23 0 69 9 102 20 34 12 68 20 78 19 33 -3
50 1 67 18 10 11 34 18 63 18 121 3 141 6 155 20 17 18 36 20 36 4 0 -7 17 -9
53 -5 55 7 90 8 147 6 19 -1 46 0 60 2 17 2 25 -2 25 -12 0 -9 11 -16 25 -17
14 -1 37 -5 51 -9 24 -5 27 -3 33 35 7 46 15 51 34 21 7 -11 21 -20 32 -20 23
0 26 10 8 28 -19 19 48 15 78 -4 23 -15 26 -15 43 0 13 12 27 15 45 10 32 -8
34 6 5 52 -23 37 -19 55 10 47 15 -4 20 1 23 19 2 18 8 22 26 20 21 -3 23 0
17 18 -8 24 7 40 38 40 10 0 17 -8 17 -20 0 -11 -7 -20 -16 -20 -11 0 -14 -6
-9 -21 5 -16 4 -19 -5 -14 -8 5 -11 4 -6 -3 11 -18 59 -3 90 28 25 24 27 31
16 44 -18 23 2 20 28 -4 12 -11 33 -20 47 -20 14 0 25 -4 25 -10 0 -5 11 -9
25 -8 14 1 25 7 25 13 0 5 13 24 30 42 l29 31 53 -16 c29 -9 55 -20 56 -25 7
-14 31 14 26 28 -3 8 -3 19 1 25 11 18 35 -9 35 -41 0 -22 6 -30 25 -35 27 -7
32 -5 83 26 25 16 34 17 38 7 6 -18 -13 -67 -26 -67 -13 0 -13 -27 0 -35 15
-9 58 26 69 58 l10 27 35 -19 c22 -13 48 -19 71 -17 20 2 48 0 63 -5 15 -5 43
-11 63 -14 29 -4 36 -9 32 -23 -2 -10 5 -26 16 -36 24 -22 72 -17 98 10 15 15
17 15 25 -6 6 -16 15 -21 35 -18 16 2 28 8 28 15 0 20 12 24 24 9 7 -8 19 -12
27 -9 8 3 23 -2 34 -12 11 -10 26 -14 38 -11 14 5 24 -1 35 -18 18 -26 65 -42
80 -27 13 13 62 -23 109 -82 22 -28 24 -28 53 -13 17 9 42 16 58 16 22 0 27
-5 27 -23 0 -31 8 -38 30 -24 14 8 25 8 45 -1 14 -7 36 -12 49 -12 27 0 38
-27 29 -73 -6 -28 -5 -29 18 -17 13 7 27 18 31 24 5 8 11 7 20 -2 10 -10 10
-19 -5 -43 -17 -31 -23 -64 -9 -57 50 24 62 34 67 50 7 19 22 23 44 9 9 -6 10
-11 2 -15 -16 -10 -14 -36 3 -30 8 3 29 -8 47 -25 41 -39 51 -39 49 2 -4 65 2
70 37 38 14 -13 24 -16 31 -9 5 5 26 11 45 13 20 2 44 8 54 14 15 9 12 10 -17
8 -25 -1 -35 2 -38 14 -5 27 43 33 107 13 11 -4 10 -8 -3 -23 -12 -14 -14 -21
-6 -26 6 -4 9 -17 6 -30 -4 -14 1 -32 14 -48 11 -14 20 -39 20 -56 0 -16 7
-56 15 -87 8 -32 17 -85 20 -117 3 -33 9 -65 13 -71 4 -6 7 -40 8 -76 1 -36 7
-85 12 -110 26 -112 31 -141 26 -154 -7 -18 24 -154 42 -182 11 -19 21 -71 41
-224 2 -19 17 -60 33 -90 15 -30 31 -72 34 -94 4 -21 11 -46 16 -55 15 -28 60
-181 60 -204 0 -12 7 -44 15 -70 15 -51 45 -231 51 -307 1 -25 5 -76 8 -115
l5 -70 58 -13 c72 -16 88 -31 78 -69 -4 -15 -8 -84 -9 -153 -1 -101 -4 -131
-18 -153 -28 -41 -22 -59 12 -38 10 7 19 2 33 -21 17 -29 19 -30 38 -13 27 25
83 130 102 190 9 28 23 88 31 135 26 139 77 341 102 400 12 30 26 82 29 115 4
33 18 94 30 135 24 78 46 171 66 275 14 74 22 636 9 669 -5 14 -10 80 -11 148
-2 128 -24 400 -34 427 -13 33 -25 351 -15 394 5 24 12 104 16 178 3 74 14
175 25 224 10 50 19 121 19 158 0 53 9 95 40 185 21 64 53 187 70 272 16 85
39 193 50 240 11 47 20 104 20 126 0 22 7 91 16 154 24 174 17 256 -40 427
-45 136 -51 148 -143 273 -69 95 -125 158 -202 228 -173 157 -251 201 -251
143 0 -11 -5 -23 -10 -26 -6 -4 -8 -10 -5 -15 3 -5 -8 -4 -25 1 -27 10 -35 20
-31 42 0 4 -2 6 -6 6 -39 -6 -68 5 -105 41 -31 30 -52 41 -87 46 -25 4 -55 11
-66 17 -11 6 -28 11 -38 12 -9 1 -29 12 -43 26 -20 19 -38 24 -97 27 -40 2
-76 8 -82 12 -5 4 -30 11 -55 15 -25 4 -61 13 -80 20 -24 8 -44 9 -62 3 -30
-10 -38 -38 -12 -38 30 0 84 -32 84 -49 0 -10 6 -18 13 -19 54 -7 88 -20 125
-48 49 -37 84 -78 75 -88 -10 -10 -78 -7 -89 3 -5 6 -28 11 -52 12 -31 2 -49
10 -68 30 -15 16 -40 31 -55 34 -16 4 -31 11 -34 16 -4 5 -15 9 -25 9 -10 0
-34 9 -53 20 -19 11 -47 20 -63 19 -16 -1 -37 2 -46 6 -17 7 -24 -8 -19 -38 1
-4 -3 -16 -9 -26 -11 -21 -32 -18 -120 14 -69 26 -100 29 -100 11 0 -23 35
-54 67 -62 42 -10 56 -24 42 -40 -15 -19 -39 -18 -39 1 0 17 -4 18 -83 19 -46
1 -62 5 -75 22 -9 12 -25 24 -35 28 -11 3 -21 15 -24 26 -4 15 -14 20 -43 20
-20 0 -51 7 -69 16 -35 17 -61 13 -61 -10 0 -15 90 -86 110 -86 6 0 24 -8 38
-19 15 -10 37 -21 49 -25 11 -4 24 -13 27 -21 3 -8 14 -15 24 -15 11 0 40 -9
66 -20 43 -20 48 -27 46 -67 -1 -13 -63 -2 -100 18 -58 31 -122 49 -180 49
-30 0 -86 5 -125 11 -38 5 -153 12 -255 15 -136 4 -189 9 -199 19 -25 25 -3
34 67 29 50 -3 62 -2 47 6 -16 8 -14 10 15 6 63 -9 95 -17 105 -27 5 -5 29 -9
55 -9 l45 0 -29 18 c-19 11 -30 27 -32 46 -4 39 -19 53 -38 37 -24 -20 -97 -4
-122 27 -18 22 -34 28 -90 35 -110 14 -160 12 -190 -8 -20 -13 -23 -19 -13
-26 7 -4 10 -11 7 -15 -4 -4 -20 2 -35 12 -15 10 -34 19 -42 20 -7 2 -50 18
-95 37 -44 19 -114 41 -155 48 -51 10 -80 21 -95 36 -11 13 -31 23 -43 23 -12
0 -25 5 -28 10 -3 6 -14 10 -23 10 -14 -1 -13 -4 7 -20 13 -11 29 -20 37 -20
7 0 20 -13 29 -30 9 -17 24 -30 34 -30 10 0 24 -7 31 -15 7 -8 18 -15 24 -15
6 0 45 -17 86 -37 41 -20 90 -42 109 -47 18 -6 33 -15 32 -21 -1 -11 -5 -12
-47 -14 -22 -1 -24 -4 -15 -15 7 -8 26 -18 43 -21 18 -4 32 -15 35 -26 7 -27
49 -25 56 2 5 20 10 21 69 15 88 -10 135 -24 142 -42 3 -9 12 -14 19 -11 7 3
24 -1 37 -8 12 -7 31 -10 40 -8 31 8 32 -16 1 -32 -39 -20 -49 -19 -69 4 -12
14 -36 21 -82 26 -64 6 -66 5 -99 -28 l-33 -35 -51 14 c-29 7 -102 16 -163 19
-62 3 -119 8 -128 11 -33 13 -14 20 42 14 31 -3 67 -4 80 -2 36 5 7 32 -35 32
-31 0 -71 18 -100 46 -7 6 -28 15 -48 18 -20 4 -38 13 -41 21 -6 16 -81 46
-184 75 -41 11 -89 25 -106 30 -17 6 -42 10 -57 10 -14 0 -29 5 -32 11 -9 13
-53 32 -85 36 -14 1 -32 3 -41 4 -8 1 -15 11 -15 23 1 15 -7 22 -29 26 -43 8
-65 1 -65 -22 0 -15 -5 -18 -16 -14 -9 4 -56 9 -105 13 l-88 6 25 19 c13 11
22 24 19 29 -4 5 -2 9 4 9 5 0 13 9 16 21 8 24 -14 52 -54 69 -39 16 -59 54
-40 76 11 13 24 15 68 10 60 -7 81 -19 81 -47 0 -21 10 -29 47 -35 15 -3 36
-14 46 -25 10 -10 25 -19 34 -19 12 0 13 -3 3 -15 -6 -8 -9 -19 -5 -25 11 -19
35 -10 41 15 3 14 7 25 8 25 7 0 113 -44 121 -50 6 -4 31 -10 58 -13 26 -4 60
-13 75 -21 37 -18 76 -5 67 24 -4 14 -2 20 9 20 8 0 18 -4 21 -10 7 -11 54
-13 79 -4 9 3 18 24 22 51 9 62 29 66 74 15 34 -40 41 -44 139 -64 98 -21 105
-21 133 -5 28 16 31 16 55 -3 18 -14 33 -18 52 -14 44 11 44 21 2 37 -24 10
-45 27 -53 44 -7 15 -30 36 -51 46 -52 24 -49 46 6 45 50 -1 121 24 125 45 2
8 -3 21 -10 29 -7 7 -14 18 -15 23 -1 6 -5 18 -8 28 -5 11 -2 17 6 18 31 1 64
10 73 19 4 4 6 24 2 43 -5 27 -13 37 -39 47 -17 6 -42 16 -53 20 -12 5 -32 28
-46 52 l-23 43 -74 0 c-51 0 -76 4 -79 13 -2 7 -19 19 -38 27 -19 8 -44 26
-57 41 -18 21 -35 28 -75 32 -38 3 -56 10 -63 23 -12 23 -53 25 -93 4 -28 -15
-30 -14 -72 25 -48 44 -68 49 -84 21z m361 -143 c6 -13 29 -44 50 -70 22 -26
39 -54 39 -62 0 -20 2 -20 -55 5 -49 22 -64 17 -65 -20 0 -7 -9 -29 -21 -48
l-21 -34 -24 26 c-43 46 -27 132 23 123 16 -3 18 3 15 50 -3 50 -2 52 22 52
16 0 29 -8 37 -22z m-593 -128 c2 -21 -2 -30 -13 -30 -18 0 -19 14 -5 41 14
25 15 24 18 -11z m928 -83 c10 -10 -19 -65 -37 -70 -17 -5 -39 10 -39 24 0 30
20 55 44 54 14 -1 29 -4 32 -8z m-392 -44 c4 -9 1 -20 -6 -25 -20 -12 -28 -10
-28 10 0 33 23 43 34 15z m-114 -119 c0 -13 14 -39 30 -57 17 -19 30 -42 30
-50 0 -24 -19 -31 -39 -13 -10 9 -23 16 -29 16 -33 0 -57 101 -31 127 17 17
39 4 39 -23z m-462 -61 c-4 -22 -22 -20 -26 1 -2 10 3 16 13 16 10 0 15 -7 13
-17z m-950 -172 c10 -6 8 -9 -10 -13 -28 -5 -48 0 -48 13 0 11 40 12 58 0z
m570 -46 c3 -3 -4 -5 -15 -5 -10 0 -29 -11 -41 -25 -12 -14 -30 -25 -41 -25
-10 0 -25 -10 -34 -22 -14 -22 -19 -23 -188 -23 -96 0 -181 -4 -189 -10 -56
-36 -144 -76 -157 -71 -22 9 -53 -3 -53 -18 0 -12 -26 -19 -112 -30 -18 -3
-18 -16 1 -25 28 -15 96 -3 117 20 10 11 30 19 48 19 18 0 49 9 71 20 40 20
119 27 129 11 10 -15 -21 -33 -51 -29 -38 4 -44 -27 -9 -43 28 -13 34 -28 14
-30 -27 -3 -44 3 -64 22 -26 24 -40 24 -117 -2 -35 -12 -96 -23 -140 -25 -43
-2 -85 -8 -95 -13 -9 -5 -20 -9 -25 -9 -4 0 -21 -4 -38 -7 -38 -9 -58 7 -39
30 10 13 9 15 -8 15 -19 0 -72 -39 -72 -54 0 -3 19 -6 43 -6 77 0 147 -12 147
-25 0 -10 -23 -13 -82 -14 -46 0 -101 -3 -123 -6 -119 -15 -165 -24 -208 -40
-26 -9 -51 -15 -54 -12 -12 13 8 37 31 37 41 0 79 18 72 35 -4 11 2 15 24 15
36 0 80 19 80 35 0 7 17 16 38 20 20 4 45 15 55 26 10 11 31 19 51 19 21 0 43
9 64 28 18 16 32 31 32 34 0 3 -21 9 -47 13 -47 8 -47 8 -18 16 17 5 48 7 70
4 147 -20 238 -11 271 27 10 10 27 18 40 18 13 0 26 5 29 10 3 6 20 10 36 10
24 0 33 6 41 28 14 37 62 65 118 69 241 16 298 17 344 6 27 -7 51 -15 54 -18z
m462 -1 c0 -24 -30 -28 -51 -8 -18 19 -18 19 16 21 25 1 35 -2 35 -13z m-2160
-2 c0 -16 -41 -52 -60 -52 -28 0 -25 19 5 30 14 5 25 14 25 20 0 5 7 10 15 10
8 0 15 -4 15 -8z m110 -52 c0 -15 -19 -22 -40 -15 -22 7 -27 31 -7 38 15 5 47
-10 47 -23z m1786 1 c16 -5 41 -12 57 -15 15 -4 27 -11 27 -17 0 -6 -5 -7 -12
-3 -7 4 -8 3 -4 -4 4 -7 15 -12 24 -12 15 -1 14 -3 -3 -16 -27 -20 -123 -11
-145 15 -9 10 -35 20 -59 24 -24 3 -49 11 -55 17 -8 9 -2 10 26 6 20 -3 47 -2
60 4 30 12 49 12 84 1z m-1606 -36 c13 -14 31 -25 40 -25 18 0 60 -29 45 -31
-5 -1 -52 -2 -104 -4 -80 -2 -91 0 -75 11 36 25 44 35 44 54 0 27 22 25 50 -5z
m2995 -15 c-3 -5 -12 -7 -20 -3 -21 7 -19 13 6 13 11 0 18 -4 14 -10z m-3435
-51 c10 -6 -1 -8 -34 -7 -31 2 -51 8 -54 17 -4 11 3 12 34 6 22 -4 46 -11 54
-16z m625 11 c4 -6 10 -8 15 -5 7 4 24 -24 18 -31 -8 -7 -57 10 -52 18 4 6 0
14 -7 19 -11 7 -11 9 3 9 9 0 20 -5 23 -10z m100 -6 c-23 -17 -56 -15 -63 4
-2 8 9 12 40 12 40 -1 42 -2 23 -16z m2740 -14 c3 -5 -4 -6 -15 -3 -11 3 -22
9 -25 13 -3 5 4 6 15 3 11 -3 22 -9 25 -13z m-3225 6 c0 -11 -19 -15 -25 -6
-3 5 1 10 9 10 9 0 16 -2 16 -4z m4378 -19 c2 -12 -3 -17 -17 -17 -12 0 -21 6
-21 13 0 31 32 34 38 4z m-1899 -6 c9 -5 39 -9 67 -9 53 -1 128 -29 125 -47
-1 -5 -12 -9 -24 -7 -129 17 -192 20 -204 10 -17 -14 -68 6 -58 23 4 5 -1 20
-12 31 l-18 20 53 -6 c30 -3 61 -10 71 -15z m-2835 -7 c14 -14 31 -20 59 -23
17 -2 5 -32 -15 -40 -34 -11 -114 -7 -132 8 -16 14 -22 52 -9 64 13 13 82 7
97 -9z m2716 -34 c12 -8 12 -10 -4 -16 -11 -4 -24 0 -34 10 -15 15 -15 16 3
16 11 0 27 -4 35 -10z m-1134 -14 c10 -8 16 -18 12 -22 -10 -9 -58 12 -58 26
0 14 23 12 46 -4z m814 -16 c21 0 43 -6 50 -14 6 -8 24 -16 38 -18 15 -2 26
-7 26 -13 -3 -16 -67 -5 -90 16 -11 11 -35 19 -53 19 -29 0 -91 24 -91 35 0 2
19 -2 41 -10 23 -8 58 -15 79 -15z m2387 0 c3 -10 14 -22 24 -25 21 -7 46 -45
30 -45 -8 0 -60 29 -120 66 -11 7 14 24 36 24 16 0 27 -7 30 -20z m-4217 2 c0
-23 -117 -48 -136 -29 -4 4 8 7 27 7 20 0 44 7 55 15 20 15 54 20 54 7z m1793
-40 c26 -11 48 -57 34 -71 -9 -9 -6 -13 10 -17 22 -6 69 -72 58 -82 -9 -10
-78 53 -94 86 -9 17 -22 32 -28 32 -19 0 -55 39 -48 50 7 11 41 12 68 2z
m2158 -9 c23 -23 3 -29 -20 -7 -18 17 -20 22 -7 20 9 -1 21 -7 27 -13z m-336
-3 c3 -5 -1 -10 -9 -10 -9 0 -16 5 -16 10 0 6 4 10 9 10 6 0 13 -4 16 -10z
m108 -38 c15 -14 27 -29 27 -33 0 -5 -12 -4 -27 1 -16 4 -40 11 -54 14 -18 4
-28 14 -32 31 -4 24 -3 26 27 19 17 -3 43 -18 59 -32z m683 6 c19 -11 34 -24
34 -29 0 -13 -13 -11 -36 5 -11 8 -41 17 -67 21 -40 6 -46 10 -36 22 15 17 57
10 105 -19z m-300 -33 c9 -14 20 -25 24 -25 11 0 70 -53 70 -62 0 -12 -83 3
-101 18 -8 8 -24 14 -34 14 -10 0 -39 10 -64 22 l-46 22 40 12 c22 7 36 13 30
14 -5 0 -2 7 9 15 23 17 48 6 72 -30z m-4106 31 c0 -2 -7 -6 -15 -10 -8 -3
-15 -1 -15 4 0 6 7 10 15 10 8 0 15 -2 15 -4z m1895 -26 c3 -5 2 -10 -4 -10
-5 0 -13 5 -16 10 -3 6 -2 10 4 10 5 0 13 -4 16 -10z m2586 -27 c13 -15 12
-15 -8 -4 -24 12 -29 21 -14 21 5 0 15 -7 22 -17z m-245 -3 c35 -14 18 -34
-20 -24 -26 6 -32 15 -19 27 8 9 7 9 39 -3z m-4268 -38 c3 -10 -4 -13 -24 -10
-15 2 -29 9 -32 16 -3 10 4 13 24 10 15 -2 29 -9 32 -16z m3922 8 c0 -6 -11
-8 -27 -4 -40 10 -41 14 -5 14 18 0 32 -5 32 -10z m481 -30 c5 0 9 -5 9 -11 0
-15 -43 -7 -48 10 -3 10 0 12 12 8 10 -4 22 -7 27 -7z m-5680 -328 c-6 -11
-27 -32 -48 -48 -21 -15 -46 -39 -56 -51 -23 -28 -37 -29 -37 -4 0 11 8 22 19
26 10 3 37 26 59 50 42 46 82 63 63 27z m638 -39 c0 -13 -59 -56 -66 -49 -9 8
37 56 54 56 7 0 13 -3 12 -7z m-639 -63 c-19 -12 -30 -12 -30 -1 0 10 31 20
40 14 2 -2 -2 -8 -10 -13z m543 -40 c-4 -4 -18 -11 -30 -15 -33 -9 -30 16 5
37 24 15 27 15 30 1 2 -8 0 -19 -5 -23z m297 26 c0 -3 -4 -8 -10 -11 -5 -3
-10 -1 -10 4 0 6 5 11 10 11 6 0 10 -2 10 -4z m-980 -20 c0 -3 -4 -8 -10 -11
-5 -3 -10 -1 -10 4 0 6 5 11 10 11 6 0 10 -2 10 -4z m310 -6 c0 -5 -7 -10 -15
-10 -8 0 -15 5 -15 10 0 6 7 10 15 10 8 0 15 -4 15 -10z m554 -18 c-27 -9 -63
-25 -78 -36 -34 -22 -111 -35 -105 -17 8 23 119 66 177 68 l57 2 -51 -17z
m-673 -13 c-27 -22 -44 -21 -49 4 -3 14 4 17 35 17 l38 -1 -24 -20z m-271 -69
c-6 -11 -16 -20 -22 -20 -6 0 -3 9 7 20 10 11 20 20 22 20 2 0 -1 -9 -7 -20z
m210 -7 c0 -16 -47 -66 -58 -62 -7 2 -1 17 15 37 26 31 43 41 43 25z m260
-138 c0 -9 -9 -15 -22 -15 -22 1 -23 1 -4 15 25 19 26 19 26 0z m-60 -36 c0
-13 -58 -69 -72 -69 -5 0 6 18 23 40 32 40 49 50 49 29z m-674 -70 c-4 -24 -2
-35 11 -44 16 -12 16 -14 0 -39 -22 -33 -37 -33 -37 -1 0 26 -23 35 -36 14 -4
-8 -10 -7 -18 1 -8 8 -4 16 17 32 15 11 27 28 27 38 0 17 12 27 34 29 5 1 6
-13 2 -30z m969 1 c-3 -5 -12 -10 -18 -10 -7 0 -6 4 3 10 19 12 23 12 15 0z
m-255 -14 c0 -3 -19 -23 -42 -45 -54 -51 -79 -38 -28 14 29 29 70 47 70 31z
m-150 -24 c0 -6 -35 -59 -55 -82 -12 -14 -30 -46 -39 -72 -10 -27 -24 -48 -32
-48 -7 0 -21 -12 -31 -27 -26 -43 -72 -83 -95 -83 -30 0 -153 -130 -154 -164
-1 -14 2 -26 7 -26 5 0 38 16 75 36 73 39 82 27 14 -21 -56 -39 -68 -58 -51
-79 24 -29 76 -14 127 37 23 23 54 36 54 23 0 -12 -80 -86 -93 -86 -7 0 -22
-9 -32 -20 -10 -12 -37 -29 -60 -39 -23 -10 -57 -32 -77 -50 -20 -17 -39 -31
-43 -31 -4 0 -20 -11 -37 -25 -46 -39 -66 -33 -33 11 15 19 25 38 22 41 -8 7
-67 -39 -67 -53 0 -6 -8 -22 -18 -34 -17 -21 -18 -21 -50 -3 -21 12 -32 26
-32 41 0 15 -6 22 -20 22 -16 0 -19 -6 -18 -35 1 -29 5 -35 24 -35 34 0 35
-25 2 -56 -16 -16 -46 -53 -65 -82 -28 -41 -33 -55 -24 -66 7 -8 8 -17 3 -20
-5 -3 -12 -19 -15 -36 -4 -18 -13 -30 -22 -30 -18 0 -18 -2 -4 -32 7 -17 6
-32 -6 -61 -21 -50 -39 -49 -31 2 6 41 -4 60 -21 38 -13 -16 -34 -127 -27
-138 3 -5 12 -9 20 -9 16 0 19 -21 5 -35 -5 -6 -21 -48 -36 -95 -16 -47 -39
-102 -52 -123 -14 -22 -22 -46 -18 -56 3 -10 -1 -58 -10 -106 -8 -48 -15 -89
-15 -90 0 -2 -9 -5 -20 -8 -12 -3 -20 -14 -20 -26 0 -11 -9 -35 -20 -53 -11
-18 -20 -44 -20 -58 0 -20 -2 -22 -10 -10 -15 23 -12 78 7 113 9 18 18 40 20
50 2 10 12 30 23 45 11 15 21 45 23 67 2 22 9 50 15 63 7 12 10 27 7 33 -4 5
1 21 10 35 11 17 13 29 6 42 -6 11 -5 25 3 42 25 48 38 95 37 129 -2 34 11 83
35 136 30 66 57 182 56 238 -2 45 3 65 21 95 13 20 29 55 36 77 7 22 22 60 34
83 24 50 149 171 201 196 20 9 40 25 46 36 12 22 89 70 113 70 17 0 32 34 22
50 -7 12 81 100 101 100 8 0 14 -4 14 -10 0 -5 4 -10 10 -10 6 0 8 15 4 34 -4
30 0 40 36 78 23 23 45 50 50 58 4 8 34 35 67 61 44 36 66 46 90 45 18 0 33
-2 33 -4z m-650 -62 c0 -5 -5 -10 -11 -10 -5 0 -7 5 -4 10 3 6 8 10 11 10 2 0
4 -4 4 -10z m120 -307 c0 -13 -43 -53 -57 -53 -10 0 -7 9 9 30 20 27 48 41 48
23z m236 -334 c9 -15 -6 -27 -40 -33 -38 -7 -45 -16 -18 -23 15 -4 25 -16 29
-34 3 -16 14 -31 24 -34 11 -4 17 -10 14 -15 -3 -5 1 -23 10 -39 20 -39 19
-44 -4 -31 -11 5 -29 10 -40 10 -14 0 -21 6 -21 19 0 26 -10 51 -21 51 -5 0
-9 -9 -9 -20 0 -22 -15 -27 -26 -9 -4 7 -7 25 -6 40 1 26 -3 29 -29 29 -35 0
-38 17 -5 30 13 5 25 13 27 18 6 14 72 52 91 52 9 0 20 -5 24 -11z m-240 -123
c3 -8 19 -20 35 -26 16 -7 29 -19 29 -28 0 -8 7 -23 15 -32 14 -15 14 -19 1
-29 -12 -10 -13 -17 -4 -34 32 -62 31 -60 6 -54 -14 4 -33 1 -44 -7 -15 -11
-31 -12 -64 -5 -25 4 -48 8 -52 9 -19 1 -88 74 -88 93 0 27 38 67 63 67 11 0
33 14 49 30 31 33 46 37 54 16z m-201 -226 c3 -5 1 -10 -4 -10 -6 0 -11 5 -11
10 0 6 2 10 4 10 3 0 8 -4 11 -10z m-345 -40 c0 -5 -5 -10 -11 -10 -5 0 -7 5
-4 10 3 6 8 10 11 10 2 0 4 -4 4 -10z m80 -80 c0 -6 -7 -25 -17 -43 -20 -39
-30 -19 -11 23 13 30 28 40 28 20z m-110 -79 c0 -12 -20 -25 -27 -18 -7 7 6
27 18 27 5 0 9 -4 9 -9z m70 -66 c-7 -8 -16 -15 -21 -15 -15 0 -10 28 9 46 16
17 17 17 20 0 2 -9 -2 -23 -8 -31z m4400 -131 c0 -8 -4 -12 -10 -9 -5 3 -10
10 -10 16 0 5 5 9 10 9 6 0 10 -7 10 -16z m-455 -13 c-8 -14 -62 -23 -87 -15
l-23 8 25 7 c37 10 92 10 85 0z m-211 -17 c23 -9 9 -24 -21 -24 -21 0 -24 2
-13 15 14 17 13 17 34 9z m-3214 -161 c0 -5 -4 -15 -10 -23 -11 -18 -25 -7
-17 15 6 15 27 21 27 8z m-24 -80 c-11 -11 -19 6 -11 24 8 17 8 17 12 0 3 -10
2 -21 -1 -24z m-274 -3 c10 0 20 -10 24 -25 4 -15 13 -25 24 -25 27 0 37 -19
45 -84 7 -53 6 -59 -9 -53 -10 4 -24 7 -32 7 -8 0 -24 21 -35 48 -43 101 -52
111 -63 68 -3 -13 -20 -39 -38 -57 -27 -28 -33 -31 -36 -16 -2 9 11 43 29 75
44 78 50 85 63 72 5 -5 18 -10 28 -10z m78 -15 c-9 -11 -16 -13 -23 -6 -7 7
-6 15 3 26 9 11 16 13 23 6 7 -7 6 -15 -3 -26z m2670 15 c0 -12 -38 -23 -50
-15 -18 11 8 34 30 28 11 -3 20 -9 20 -13z m-3120 -15 c0 -8 -7 -15 -15 -15
-8 0 -15 7 -15 15 0 8 7 15 15 15 8 0 15 -7 15 -15z m2700 -15 c0 -5 -4 -10
-10 -10 -5 0 -10 5 -10 10 0 6 5 10 10 10 6 0 10 -4 10 -10z m-2090 -79 c0 -6
-4 -13 -10 -16 -5 -3 -10 1 -10 9 0 9 5 16 10 16 6 0 10 -4 10 -9z m-431 -33
c11 -10 14 -10 18 0 8 21 32 13 39 -14 4 -16 -1 -41 -12 -67 -14 -29 -19 -63
-18 -114 1 -94 -17 -97 -32 -6 -4 29 -18 86 -35 141 -17 55 7 91 40 60z m133
-78 c7 -11 18 -20 25 -20 15 0 17 -16 3 -25 -11 -7 -60 38 -60 55 0 17 19 11
32 -10z m2408 -90 c0 -16 -4 -30 -10 -30 -5 0 -10 5 -10 10 0 6 -7 10 -15 10
-15 0 -21 21 -8 33 3 4 15 7 25 7 13 0 18 -8 18 -30z m-2452 -73 c2 -15 -1
-27 -7 -27 -14 0 -33 38 -26 51 11 17 30 4 33 -24z m1812 -38 c0 -11 -4 -17
-10 -14 -5 3 -10 13 -10 21 0 8 5 14 10 14 6 0 10 -9 10 -21z m-70 -19 c0 -5
-7 -10 -16 -10 -8 0 -12 5 -9 10 3 6 10 10 16 10 5 0 9 -4 9 -10z m-1730 -20
c6 -10 8 -37 4 -58 -6 -39 -7 -39 -35 -29 -32 13 -37 25 -13 34 11 4 14 14 10
33 -8 42 15 56 34 20z m1840 -26 c0 -8 -5 -12 -10 -9 -6 4 -8 11 -5 16 9 14
15 11 15 -7z m-1757 -89 c4 -8 2 -17 -2 -20 -5 -2 -11 4 -14 15 -6 23 8 27 16
5z m1545 -24 c2 -1 -4 -9 -14 -18 -20 -21 -69 -23 -69 -3 0 19 44 30 83 21z
m-1588 -292 c0 -20 -25 -37 -37 -25 -3 3 -1 17 5 32 13 28 32 24 32 -7z m120
-355 c0 -8 -4 -12 -10 -9 -5 3 -10 10 -10 16 0 5 5 9 10 9 6 0 10 -7 10 -16z
m333 -820 c-4 -10 -9 -12 -15 -6 -12 12 -1 35 12 27 5 -3 6 -13 3 -21z m12
-54 c3 -5 1 -10 -4 -10 -6 0 -11 5 -11 10 0 6 2 10 4 10 3 0 8 -4 11 -10z"/>
<path d="M11350 19950 c20 -13 43 -13 35 0 -3 6 -16 10 -28 10 -18 0 -19 -2
-7 -10z"/>
<path d="M13188 19783 c7 -3 16 -2 19 1 4 3 -2 6 -13 5 -11 0 -14 -3 -6 -6z"/>
<path d="M7849 18813 c-13 -16 -12 -17 4 -4 16 13 21 21 13 21 -2 0 -10 -8
-17 -17z"/>
<path d="M7809 18773 c-13 -16 -12 -17 4 -4 16 13 21 21 13 21 -2 0 -10 -8
-17 -17z"/>
<path d="M7391 18316 c-6 -7 -24 -16 -39 -19 -31 -6 -106 -81 -117 -114 -11
-38 13 -27 67 32 27 30 56 55 64 55 27 0 64 24 64 42 0 21 -23 24 -39 4z"/>
<path d="M7480 18273 c-24 -10 -70 -60 -70 -77 0 -18 16 -21 26 -5 3 6 26 19
51 30 32 14 44 24 41 36 -3 19 -24 25 -48 16z"/>
<path d="M7127 18033 c-4 -3 -7 -15 -7 -25 0 -26 24 -17 28 10 3 21 -8 29 -21
15z"/>
<path d="M7100 17949 c0 -5 5 -7 10 -4 6 3 10 8 10 11 0 2 -4 4 -10 4 -5 0
-10 -5 -10 -11z"/>
<path d="M7372 17982 c-10 -7 -9 -15 4 -40 25 -52 56 -35 32 18 -14 32 -16 34
-36 22z"/>
<path d="M7250 17925 c0 -8 7 -15 15 -15 8 0 15 7 15 15 0 8 -7 15 -15 15 -8
0 -15 -7 -15 -15z"/>
<path d="M10295 20829 c-9 -28 -4 -31 55 -37 40 -4 51 -1 56 12 10 27 -15 46
-62 46 -34 0 -44 -4 -49 -21z"/>
<path d="M9630 20765 c-32 -39 19 -71 65 -41 13 9 32 16 42 16 25 1 -46 39
-73 40 -12 0 -27 -7 -34 -15z"/>
<path d="M9579 20664 c-16 -20 0 -49 27 -49 35 0 28 64 -7 65 -4 0 -12 -7 -20
-16z"/>
<path d="M12018 20539 c-10 -5 -18 -18 -18 -29 0 -18 6 -22 60 -34 34 -8 89
-56 73 -62 -7 -3 -13 -11 -13 -19 0 -7 -6 -17 -13 -23 -17 -14 -68 -26 -65
-16 1 5 -2 24 -6 42 -6 26 -12 33 -29 30 -33 -5 -35 -50 -3 -75 19 -15 22 -23
13 -32 -6 -6 -7 -11 -3 -11 5 0 3 -6 -3 -14 -8 -10 -9 -16 -1 -21 5 -3 10 -3
10 1 0 4 11 -3 25 -16 21 -19 36 -23 106 -25 45 -1 84 -7 88 -12 11 -18 49
-33 80 -33 16 0 42 -5 56 -12 20 -9 31 -9 45 -1 14 10 28 6 71 -20 30 -18 58
-42 64 -55 18 -40 63 -30 119 27 27 27 46 55 44 63 -3 7 12 32 33 55 45 49 46
54 20 77 -29 26 -201 35 -235 12 -32 -20 -80 -21 -96 -1 -17 21 -42 19 -63 -6
-23 -26 -36 -21 -60 22 -25 46 -27 47 -67 51 -19 1 -40 7 -47 13 -6 5 -33 30
-61 55 -54 50 -93 80 -102 80 -3 0 -13 -5 -22 -11z"/>
<path d="M12331 20494 c-39 -32 -39 -39 0 -53 27 -9 37 -8 68 11 84 50 87 68
11 68 -38 0 -55 -6 -79 -26z"/>
<path d="M12628 20482 c-22 -4 -24 -38 -2 -46 40 -16 90 9 62 31 -19 14 -41
20 -60 15z"/>
<path d="M9183 20396 c-24 -20 -25 -26 -14 -40 16 -19 91 -22 142 -5 49 17 54
24 30 48 -31 31 -120 30 -158 -3z"/>
<path d="M13120 20116 c0 -16 27 -29 41 -20 13 8 -9 34 -27 34 -8 0 -14 -6
-14 -14z"/>
<path d="M8315 20110 c-16 -7 -17 -9 -3 -9 9 -1 20 4 23 9 7 11 7 11 -20 0z"/>
<path d="M11570 20108 c0 -4 4 -8 9 -8 6 0 12 4 15 8 3 5 -1 9 -9 9 -8 0 -15
-4 -15 -9z"/>
<path d="M7998 20084 c-36 -19 -55 -52 -34 -60 21 -8 76 33 76 57 0 23 -6 23
-42 3z"/>
<path d="M8411 20074 c-18 -21 -29 -25 -53 -20 -25 5 -28 4 -19 -8 9 -11 7
-15 -11 -20 -13 -3 -35 -6 -50 -6 -30 0 -39 -26 -13 -36 22 -9 82 4 99 21 8 8
25 15 38 15 13 0 28 4 34 8 13 8 34 46 34 61 0 20 -36 11 -59 -15z"/>
<path d="M12490 20047 c-14 -12 -24 -21 -22 -20 3 1 12 -2 22 -7 28 -15 60 -1
60 26 0 31 -26 32 -60 1z"/>
<path d="M7883 20009 c-24 -11 -55 -37 -70 -56 -42 -52 -73 -83 -142 -142 -35
-30 -74 -73 -88 -95 -14 -23 -39 -56 -54 -74 -35 -39 -36 -52 -8 -52 19 0 21
-4 15 -38 -3 -22 -3 -41 0 -45 7 -6 64 19 118 52 21 13 51 41 66 63 26 36 90
88 109 88 4 0 17 18 30 40 12 22 40 62 62 90 23 29 39 54 36 57 -3 2 -19 -2
-35 -11 -26 -14 -31 -14 -36 -1 -3 9 -19 15 -38 15 -31 1 -32 1 -14 15 11 8
32 15 46 15 36 0 81 42 77 72 -5 31 -24 32 -74 7z m7 -159 c0 -17 -86 -110
-102 -110 -23 0 -23 7 5 53 33 55 97 93 97 57z"/>
<path d="M11666 20001 c-17 -6 -14 -10 18 -29 20 -12 41 -22 46 -22 13 0 -1
32 -19 47 -18 14 -19 14 -45 4z"/>
<path d="M12696 19986 c7 -18 74 -23 74 -6 0 6 -8 10 -17 10 -10 0 -28 3 -41
6 -18 5 -21 3 -16 -10z"/>
<path d="M8172 19899 c-47 -20 -50 -43 -4 -29 57 17 83 30 77 40 -9 14 -23 12
-73 -11z"/>
<path d="M8660 19821 c0 -13 17 -17 57 -13 25 3 31 7 22 13 -19 12 -79 11 -79
0z"/>
<path d="M8765 19670 c-3 -5 1 -13 10 -16 22 -9 29 1 11 15 -10 8 -16 9 -21 1z"/>
<path d="M8383 19556 c-29 -14 -30 -36 -2 -36 14 0 19 5 16 14 -3 7 0 19 6 25
13 13 10 13 -20 -3z"/>
<path d="M7421 19534 c-12 -15 -21 -31 -21 -36 0 -5 -14 -30 -32 -54 -26 -37
-33 -57 -36 -109 -5 -80 8 -90 69 -48 29 19 46 40 55 66 8 21 27 56 44 77 l30
38 -25 16 c-23 15 -28 15 -55 1 -27 -14 -29 -14 -23 2 3 10 12 27 20 38 28 42
6 49 -26 9z m-21 -154 c-18 -11 -24 -6 -16 16 5 14 9 15 19 5 9 -9 9 -14 -3
-21z"/>
<path d="M7165 18913 c-22 -21 -35 -57 -35 -94 0 -27 2 -28 20 -17 11 7 20 19
20 26 0 7 9 32 20 54 11 23 20 43 20 45 0 10 -31 0 -45 -14z"/>
<path d="M7092 18728 c-13 -13 -17 -48 -4 -48 22 1 35 20 26 40 -7 17 -12 18
-22 8z"/>
<path d="M7075 18509 c-11 -17 1 -21 15 -4 8 9 8 15 2 15 -6 0 -14 -5 -17 -11z"/>
<path d="M11350 17422 c0 -19 23 -31 42 -21 27 15 22 29 -12 29 -16 0 -30 -4
-30 -8z"/>
<path d="M9851 16916 c-15 -28 -7 -80 12 -73 15 4 21 61 10 82 -8 13 -11 12
-22 -9z"/>
<path d="M9261 16677 c-21 -10 -30 -27 -16 -27 3 0 16 0 30 0 15 0 25 6 25 14
0 22 -13 26 -39 13z"/>
<path d="M8846 16531 c-7 -10 18 -34 27 -25 7 8 -3 34 -13 34 -5 0 -11 -4 -14
-9z"/>
<path d="M8600 16390 c0 -5 5 -10 10 -10 6 0 10 5 10 10 0 6 -4 10 -10 10 -5
0 -10 -4 -10 -10z"/>
<path d="M7070 16010 c0 -5 5 -10 10 -10 6 0 10 5 10 10 0 6 -4 10 -10 10 -5
0 -10 -4 -10 -10z"/>
<path d="M8875 15940 c-3 -5 1 -10 9 -10 9 0 16 5 16 10 0 6 -4 10 -9 10 -6 0
-13 -4 -16 -10z"/>
<path d="M9280 15890 c-74 -49 -74 -49 -144 -45 -58 3 -77 0 -108 -17 -31 -18
-42 -19 -62 -10 -19 9 -27 8 -37 -4 -8 -10 -23 -13 -47 -9 -36 5 -78 -18 -66
-36 3 -5 1 -9 -5 -9 -6 0 -25 -13 -43 -29 -18 -15 -51 -34 -73 -41 -22 -7 -49
-19 -60 -26 -11 -8 -25 -14 -33 -14 -23 0 -151 -89 -169 -118 -10 -15 -22 -30
-27 -34 -6 -4 -5 -12 2 -21 10 -11 9 -17 -3 -27 -8 -7 -15 -18 -15 -25 0 -7
-7 -18 -15 -25 -11 -9 -15 -29 -14 -71 2 -46 7 -63 25 -80 22 -20 29 -21 131
-14 59 4 146 9 193 10 47 1 175 6 285 10 284 11 595 -16 920 -80 66 -13 174
-33 240 -45 211 -37 382 -68 440 -81 82 -17 99 -5 41 30 -27 17 -32 26 -28 46
4 22 1 25 -22 25 -31 0 -44 24 -28 51 17 27 15 96 -2 102 -8 3 -20 0 -26 -8
-16 -19 -45 -12 -45 12 0 31 -32 61 -59 56 -24 -5 -66 22 -66 42 0 20 -98 85
-129 85 -20 0 -40 10 -61 31 -28 29 -32 30 -44 14 -11 -15 -13 -15 -25 -1 -11
13 -11 19 0 32 10 13 10 17 -2 25 -18 11 -26 11 -34 -1 -3 -5 -22 -10 -42 -10
-26 0 -36 5 -40 20 -3 11 -12 20 -19 20 -8 0 -14 5 -14 10 0 6 -19 9 -46 7
-37 -3 -52 1 -74 19 -37 32 -77 46 -125 44 -56 -2 -62 -1 -45 10 12 7 12 12 2
22 -6 6 -12 22 -12 35 0 27 1 27 -66 6 -44 -13 -56 -14 -69 -3 -8 7 -13 15
-11 18 12 12 -24 30 -60 30 -59 0 -74 4 -74 18 0 8 -6 11 -15 8 -19 -8 -19 13
0 50 31 59 22 59 -75 -4z"/>
<path d="M12517 15475 c-16 -8 -59 -18 -95 -21 -37 -4 -75 -13 -84 -21 -10 -9
-27 -13 -40 -10 -13 3 -43 2 -68 -3 -25 -4 -73 -13 -108 -19 -51 -9 -70 -19
-98 -46 -37 -37 -50 -42 -56 -23 -7 20 -37 0 -55 -36 -9 -19 -20 -33 -25 -30
-4 3 -8 0 -8 -5 0 -6 7 -11 15 -11 8 0 15 5 15 10 0 6 10 10 23 10 21 -1 20
-2 -5 -16 -16 -8 -28 -20 -28 -25 0 -7 -9 -9 -21 -6 -12 3 -22 0 -26 -9 -3 -8
-9 -14 -13 -14 -5 0 -29 -12 -54 -27 -32 -20 -45 -35 -46 -50 0 -13 -4 -23
-10 -23 -15 0 -94 -83 -95 -100 0 -9 -23 -23 -59 -36 -41 -14 -53 -22 -40 -26
23 -5 253 15 339 31 33 5 76 13 95 16 64 10 582 29 765 28 294 -1 732 -20 845
-37 157 -23 260 -30 260 -19 0 15 -50 106 -70 128 -11 11 -25 35 -32 52 -8 18
-39 52 -69 75 -30 24 -61 48 -69 55 -8 7 -45 37 -82 68 -37 30 -75 55 -84 55
-10 0 -32 11 -50 25 -18 14 -46 25 -63 25 -35 0 -39 -7 -13 -27 15 -13 13 -14
-23 -9 -22 3 -58 15 -79 26 -43 21 -103 36 -113 27 -3 -3 2 -13 11 -22 9 -9
16 -20 16 -24 0 -12 -52 -12 -67 1 -8 6 -33 11 -56 10 -33 -2 -49 3 -72 23
-24 21 -38 25 -77 24 -26 -2 -48 -6 -48 -10 0 -12 -55 -18 -68 -6 -8 6 -37 11
-65 12 -29 1 -65 7 -80 13 -36 15 -36 15 -70 -3z m840 -71 c-3 -3 -12 -4 -19
-1 -8 3 -5 6 6 6 11 1 17 -2 13 -5z m13 -34 c-8 -5 -18 -6 -24 -3 -5 4 -1 10
10 13 24 9 34 2 14 -10z"/>
<path d="M8797 15208 c-73 -7 -83 -11 -73 -27 4 -6 29 -8 59 -5 136 13 157 16
152 24 -8 12 -63 16 -138 8z"/>
<path d="M9050 15180 c51 -13 231 -23 202 -10 -12 5 -70 12 -130 14 -75 4 -97
3 -72 -4z"/>
<path d="M9363 15154 c3 -3 18 -7 34 -8 15 -2 65 -6 109 -11 51 -5 84 -4 87 3
4 5 -10 12 -31 16 -48 8 -207 8 -199 0z"/>
<path d="M8174 15129 c-8 -13 -3 -18 24 -22 37 -6 36 -2 28 -190 0 -15 -8 -32
-16 -37 -12 -8 -13 -13 -2 -30 15 -24 16 -62 2 -76 -15 -15 39 -62 75 -66 26
-3 31 -8 36 -38 l5 -35 11 40 c45 168 50 289 14 344 -28 43 -41 65 -51 89 -5
12 -15 22 -22 23 -7 0 -32 2 -55 4 -24 2 -46 -1 -49 -6z m153 -271 c-3 -8 -6
-5 -6 6 -1 11 2 17 5 13 3 -3 4 -12 1 -19z"/>
<path d="M8191 15044 c0 -11 3 -14 6 -6 3 7 2 16 -1 19 -3 4 -6 -2 -5 -13z"/>
<path d="M9612 14998 c-7 -7 -12 -19 -12 -27 0 -12 -3 -12 -12 -3 -7 7 -21 12
-33 12 -38 0 -73 -118 -43 -148 7 -7 28 -12 48 -12 71 0 100 -34 119 -139 7
-40 31 -55 31 -19 0 27 31 58 58 58 64 -2 242 -194 242 -263 0 -26 -33 -54
-78 -66 -37 -10 -38 -28 -3 -36 17 -3 29 -12 28 -18 -3 -15 99 -13 117 2 6 5
34 13 61 16 28 4 57 13 66 21 8 8 21 14 27 14 40 0 36 149 -6 238 -35 75 -146
199 -222 250 -102 67 -139 83 -239 108 -106 27 -132 29 -149 12z m-27 -78 c17
-33 19 -44 6 -36 -5 3 -14 -1 -21 -9 -13 -16 -40 -9 -40 10 0 23 19 65 29 65
6 0 17 -13 26 -30z m175 0 c0 -5 -4 -10 -9 -10 -6 0 -13 5 -16 10 -3 6 1 10 9
10 9 0 16 -4 16 -10z m145 -50 c4 -6 25 -20 48 -31 41 -21 85 -65 99 -100 5
-14 3 -15 -18 -5 -13 6 -24 14 -24 19 0 15 -30 6 -40 -13 -9 -17 -5 -23 30
-45 22 -14 40 -30 40 -35 0 -13 -37 -13 -45 0 -3 6 -19 10 -35 10 -16 0 -41
10 -57 23 -15 12 -41 29 -57 37 -43 22 -74 103 -38 99 32 -3 44 1 39 14 -2 6
-1 22 4 35 7 19 12 21 28 12 11 -5 23 -15 26 -20z m-202 -2 l42 -23 -33 -3
c-45 -4 -62 3 -62 28 0 25 1 25 53 -2z m367 -245 c0 -13 -3 -13 -15 -3 -8 7
-12 16 -9 21 8 13 24 1 24 -18z m64 -33 c6 -8 1 -7 -11 4 -13 10 -20 23 -16
29 4 7 8 6 11 -3 3 -8 10 -22 16 -30z m-34 -144 c0 -3 -4 -8 -10 -11 -5 -3
-10 -1 -10 4 0 6 5 11 10 11 6 0 10 -2 10 -4z"/>
<path d="M9374 14983 c-3 -10 -10 -27 -16 -39 -12 -26 -7 -86 9 -91 7 -3 13
15 16 49 2 29 8 63 12 76 5 14 3 22 -4 22 -6 0 -14 -8 -17 -17z"/>
<path d="M8155 14930 c-7 -49 -2 -70 16 -70 5 0 8 27 7 60 -2 33 -6 60 -10 60
-3 0 -9 -22 -13 -50z"/>
<path d="M9081 14950 l-23 -20 30 0 c29 0 58 21 45 33 -11 12 -27 7 -52 -13z"/>
<path d="M10717 14912 c47 -42 67 -81 83 -164 11 -55 6 -142 -10 -163 -4 -5
-10 -19 -13 -30 -3 -11 -15 -45 -26 -75 -12 -30 -21 -64 -21 -75 0 -33 26 3
44 60 23 77 77 218 89 233 9 11 13 9 19 -9 8 -20 10 -21 26 -5 22 19 39 21 45
4 3 -9 11 -4 25 12 14 18 19 34 15 57 -5 29 -3 32 16 28 13 -2 21 1 21 10 0
16 39 22 187 30 63 3 104 1 108 -5 3 -5 19 -10 34 -10 18 0 38 -10 54 -27 15
-16 47 -50 72 -76 46 -47 47 -50 55 -135 26 -253 102 -613 126 -589 6 6 -2 61
-42 307 -30 180 -42 284 -39 356 1 59 43 133 110 197 l40 39 -35 -5 c-19 -3
-75 -13 -125 -22 -49 -9 -99 -14 -111 -11 -12 3 -135 10 -273 16 -219 9 -257
13 -291 30 -22 11 -48 20 -58 20 -10 0 -45 9 -77 20 -85 29 -97 25 -48 -18z
m134 -85 c-1 -12 -15 -9 -19 4 -3 6 1 10 8 8 6 -3 11 -8 11 -12z"/>
<path d="M8948 14908 c-21 -12 -38 -26 -38 -30 0 -20 30 -17 65 6 21 14 42 26
46 26 5 0 9 5 9 10 0 17 -43 11 -82 -12z"/>
<path d="M8751 14842 c-39 -19 -55 -24 -58 -14 -3 6 -10 12 -18 12 -15 0 -45
-58 -38 -76 2 -6 0 -15 -6 -19 -6 -3 -11 -15 -11 -25 0 -17 3 -18 24 -8 26 11
56 5 56 -12 0 -5 -13 -10 -30 -10 -32 0 -40 -14 -14 -24 27 -10 4 -26 -39 -26
-44 0 -88 -17 -94 -36 -2 -7 21 -16 57 -23 38 -8 60 -17 60 -26 0 -7 -6 -15
-12 -18 -10 -3 -10 -7 1 -21 10 -12 25 -15 59 -12 64 5 123 -20 92 -39 -20
-12 -10 -25 19 -25 17 0 32 -4 35 -9 5 -7 72 -8 109 -2 16 3 5 17 -23 29 -42
19 -53 43 -35 79 8 15 15 35 15 43 0 8 24 41 53 73 45 49 62 61 130 84 96 33
103 29 87 -54 -10 -48 -9 -69 3 -117 23 -86 56 -129 108 -144 24 -7 71 -22
104 -33 67 -21 197 -21 232 1 22 14 76 100 63 100 -5 0 -30 -11 -56 -25 -48
-26 -108 -33 -119 -15 -4 6 -21 8 -41 4 -44 -8 -64 8 -64 53 0 51 45 88 102
85 37 -1 46 3 65 27 34 43 36 55 13 84 -17 21 -26 25 -54 20 -34 -5 -82 13
-105 41 -18 21 -43 20 -88 -4 -21 -11 -44 -20 -51 -20 -20 0 -34 49 -23 82 12
35 -2 44 -42 29 -15 -6 -40 -8 -56 -5 -23 5 -42 -3 -92 -35 -35 -23 -69 -41
-76 -41 -21 0 -26 -1 -76 -21 -26 -11 -63 -19 -82 -19 -19 0 -35 -5 -35 -11 0
-6 -7 -8 -16 -5 -10 4 -25 -1 -36 -10 -10 -10 -21 -14 -25 -10 -4 4 3 15 16
25 16 12 22 24 18 35 -5 11 6 31 33 60 61 65 51 73 -39 28z m565 -259 c-10
-10 -19 5 -10 18 6 11 8 11 12 0 2 -7 1 -15 -2 -18z m-472 0 c8 -19 -8 -38
-23 -29 -16 10 -13 46 3 46 8 0 17 -8 20 -17z"/>
<path d="M9010 14844 c-14 -7 -37 -14 -52 -14 -21 0 -26 -5 -25 -20 1 -11 8
-20 18 -20 18 0 106 46 114 61 9 13 -26 9 -55 -7z"/>
<path d="M13914 14773 c13 -32 28 -85 34 -118 12 -72 7 -214 -7 -228 -6 -6
-11 -37 -11 -70 0 -80 22 -72 33 12 4 35 14 76 22 91 27 53 19 232 -14 299 -9
18 -30 42 -48 52 l-32 20 23 -58z"/>
<path d="M7081 14796 c-12 -13 -38 -32 -57 -42 -19 -10 -33 -23 -31 -28 2 -5
27 -16 55 -24 65 -18 82 -8 82 53 0 56 -19 73 -49 41z"/>
<path d="M12462 14767 c-14 -17 -6 -27 23 -27 24 0 81 -26 91 -41 3 -5 0 -16
-6 -24 -6 -8 -9 -23 -5 -34 9 -28 -28 -45 -94 -44 -30 1 -66 -4 -80 -11 -14
-7 -52 -16 -85 -20 -32 -3 -67 -11 -78 -17 -15 -8 -22 -7 -31 4 -15 18 -77 31
-77 16 0 -6 -4 -8 -10 -4 -12 7 -50 -16 -50 -31 0 -7 -7 -14 -15 -18 -17 -6
-21 9 -5 19 6 3 10 17 10 29 0 13 7 29 15 36 8 7 15 18 15 25 0 7 10 15 22 18
12 4 19 9 16 13 -9 8 -65 -25 -105 -63 -18 -17 -37 -33 -42 -35 -4 -2 -20 -21
-34 -44 -25 -41 -25 -41 -6 -60 19 -19 18 -20 -36 -77 -30 -31 -55 -65 -55
-75 0 -22 54 -42 96 -35 16 3 52 7 79 8 130 8 176 27 123 50 -13 6 -24 17 -26
26 -4 24 26 32 43 11 77 -90 100 -111 126 -117 16 -4 31 -11 34 -16 4 -5 14
-9 23 -9 13 1 11 4 -7 14 -13 7 -37 30 -52 51 -22 29 -26 41 -18 52 8 9 9 36
5 81 l-6 67 31 18 c17 9 46 17 64 17 l34 0 -4 -75 c-2 -58 0 -75 11 -75 7 0
28 -13 46 -29 65 -56 148 -21 158 68 4 41 9 48 44 68 41 23 76 18 76 -11 0 -8
7 -27 15 -42 8 -16 15 -40 15 -54 0 -28 -39 -130 -60 -155 -14 -17 -8 -31 10
-20 20 12 57 79 74 136 19 59 18 68 -19 168 -23 64 -14 69 33 22 33 -31 48
-40 66 -35 17 4 32 -5 69 -45 26 -28 47 -54 47 -59 0 -4 16 -16 36 -26 35 -16
38 -16 58 1 11 10 22 18 24 19 1 1 -4 14 -13 30 -8 16 -15 34 -15 41 0 7 -12
19 -27 27 l-28 14 28 11 c31 12 34 23 11 45 -23 23 -32 20 -55 -19 -22 -36
-33 -43 -44 -25 -3 6 -15 10 -26 10 -10 0 -19 5 -19 11 0 6 -9 8 -21 4 -12 -4
-27 -1 -38 9 -9 8 -38 25 -64 36 -26 12 -47 25 -47 30 0 5 -9 11 -20 15 -10 3
-29 22 -41 41 -18 30 -20 39 -10 61 17 36 2 47 -67 49 -31 1 -71 4 -88 8 -21
5 -34 2 -42 -7z m203 -157 c11 0 55 -41 55 -52 0 -17 -30 -7 -40 13 -7 11 -25
25 -41 31 -17 6 -29 17 -29 27 0 9 -6 24 -12 31 -7 8 3 0 22 -18 20 -17 40
-32 45 -32z m-515 -61 c0 -5 -4 -9 -10 -9 -5 0 -10 7 -10 16 0 8 5 12 10 9 6
-3 10 -10 10 -16z m376 -7 c20 -14 44 -57 44 -79 0 -26 -32 -47 -58 -38 -10 3
-33 20 -51 39 -28 29 -31 37 -22 54 6 11 23 23 38 25 16 2 30 5 33 5 3 1 10
-2 16 -6z"/>
<path d="M7920 14723 c-229 -76 -272 -94 -257 -109 10 -11 149 18 181 37 41
25 56 24 53 -3 -2 -25 15 -30 51 -14 31 13 28 25 -8 33 -16 3 -30 9 -30 14 0
8 81 35 185 60 44 11 47 14 25 20 -43 12 -61 9 -200 -38z"/>
<path d="M13642 14758 c-19 -19 -14 -48 8 -48 15 0 20 7 20 24 0 30 -12 40
-28 24z"/>
<path d="M12939 14686 c6 -8 20 -16 31 -19 16 -4 17 -2 7 14 -6 10 -20 19 -31
19 -15 0 -16 -3 -7 -14z"/>
<path d="M10924 14641 c-18 -13 -64 -145 -64 -179 0 -6 -25 -63 -56 -127 -31
-64 -54 -119 -51 -122 10 -9 100 140 121 202 17 48 30 65 66 92 76 55 142 124
132 139 -12 17 -126 14 -148 -5z"/>
<path d="M7285 14594 c-14 -15 -25 -35 -25 -46 0 -10 -15 -34 -34 -53 -32 -32
-34 -38 -34 -100 0 -77 10 -90 70 -100 68 -10 78 -15 78 -36 0 -14 5 -19 18
-17 12 2 17 14 18 38 2 73 34 92 34 20 0 -36 14 -60 27 -47 3 3 11 37 19 74 8
37 19 93 25 123 6 30 12 66 13 79 2 13 10 29 19 36 9 7 17 15 17 18 0 9 -136
37 -180 37 -31 0 -47 -6 -65 -26z"/>
<path d="M8306 14608 c-15 -47 -36 -261 -30 -308 3 -25 1 -67 -4 -93 -8 -40
-7 -50 7 -60 10 -7 23 -37 29 -68 13 -56 41 -111 42 -79 0 8 -7 35 -16 59 -12
36 -15 93 -14 289 0 135 3 248 5 253 3 4 1 10 -5 14 -6 3 -12 0 -14 -7z"/>
<path d="M11317 14542 c7 -19 71 -82 84 -82 14 0 21 19 14 40 -4 14 -15 20
-36 20 -16 0 -29 3 -29 8 0 4 -9 13 -20 19 -17 11 -18 10 -13 -5z"/>
<path d="M12320 14480 c0 -5 5 -10 11 -10 5 0 7 5 4 10 -3 6 -8 10 -11 10 -2
0 -4 -4 -4 -10z"/>
<path d="M6664 14442 c-26 -21 -44 -54 -44 -80 0 -16 7 -20 43 -20 41 -1 45 1
54 31 11 36 -1 87 -20 87 -7 0 -22 -8 -33 -18z"/>
<path d="M13135 14429 c-10 -15 3 -25 16 -12 7 7 7 13 1 17 -6 3 -14 1 -17 -5z"/>
<path d="M14107 14426 c-27 -7 -53 -18 -60 -25 -6 -6 -21 -51 -33 -100 l-22
-90 22 -103 c15 -75 25 -103 36 -103 8 0 16 9 18 20 2 11 20 41 40 68 29 38
42 47 67 47 17 0 46 11 64 24 19 14 46 28 62 31 16 4 29 11 29 16 0 11 -53 88
-60 89 -3 0 -18 -25 -33 -55 -30 -62 -57 -73 -57 -25 0 17 7 47 15 68 9 21 13
48 10 62 -9 34 -36 90 -44 89 -3 0 -28 -6 -54 -13z"/>
<path d="M8960 14389 c0 -21 1 -22 24 -13 22 8 20 21 -4 27 -15 4 -20 0 -20
-14z"/>
<path d="M12284 14389 c-8 -14 14 -29 44 -29 20 0 21 2 10 20 -14 22 -43 27
-54 9z"/>
<path d="M10710 14355 c-7 -9 -10 -18 -7 -21 3 -3 10 4 17 15 13 25 8 27 -10
6z"/>
<path d="M13120 14340 c12 -17 23 -36 24 -43 7 -31 21 -47 56 -66 22 -11 41
-17 44 -13 9 15 -19 55 -49 72 -16 9 -34 26 -40 37 -5 12 -20 27 -33 32 l-24
11 22 -30z"/>
<path d="M10680 14291 c0 -25 6 -27 13 -6 4 8 2 17 -3 20 -6 4 -10 -3 -10 -14z"/>
<path d="M9470 14290 c0 -5 5 -10 10 -10 6 0 10 5 10 10 0 6 -4 10 -10 10 -5
0 -10 -4 -10 -10z"/>
<path d="M11444 14238 c9 -55 31 -89 52 -81 21 8 10 70 -19 101 -31 33 -40 28
-33 -20z"/>
<path d="M6532 14258 c-17 -17 -15 -26 9 -51 14 -15 19 -31 16 -50 -2 -15 1
-31 6 -34 6 -3 7 -1 3 5 -3 6 1 17 9 26 14 13 14 22 4 56 -15 48 -31 64 -47
48z"/>
<path d="M13935 14151 c-3 -10 -14 -71 -25 -134 -10 -64 -24 -125 -29 -136 -6
-11 -11 -28 -11 -37 0 -33 18 0 44 78 14 42 32 88 40 101 20 30 20 147 0 147
-7 0 -15 -8 -19 -19z"/>
<path d="M14463 13940 c-28 -11 -29 -21 -4 -37 32 -20 61 -114 61 -197 0 -56
4 -75 15 -80 9 -3 15 0 15 10 0 8 4 13 9 9 5 -3 9 8 9 24 -1 17 5 38 13 47 8
9 13 19 11 20 -13 15 -31 91 -26 109 7 30 -21 79 -53 94 -13 6 -25 11 -26 10
-1 0 -12 -4 -24 -9z"/>
<path d="M7300 13751 c0 -8 -7 -21 -15 -30 -32 -34 -66 -81 -59 -81 4 0 -1 -9
-11 -20 -10 -11 -26 -20 -37 -20 -10 0 -18 -8 -19 -17 -7 -109 -5 -134 11
-153 26 -30 55 -32 80 -5 14 15 30 22 45 19 13 -2 35 0 48 5 25 10 25 10 26
154 1 154 -3 168 -47 164 -12 -1 -22 -8 -22 -16z"/>
<path d="M14497 13485 c-4 -8 -2 -17 3 -20 6 -4 10 3 10 14 0 25 -6 27 -13 6z"/>
<path d="M6872 13281 c-17 -35 -15 -55 8 -76 10 -9 18 -22 17 -29 -1 -6 14
-12 33 -14 38 -3 36 -7 31 63 -1 6 -12 22 -26 37 -14 15 -25 31 -25 36 0 19
-27 7 -38 -17z"/>
<path d="M10125 13227 c-8 -19 -21 -39 -29 -47 -9 -7 -16 -16 -16 -21 0 -4
-13 -29 -30 -56 -16 -26 -32 -68 -36 -93 -9 -62 8 -42 35 42 12 37 31 78 42
92 10 13 19 28 19 33 0 4 12 19 25 32 26 24 33 51 14 51 -5 0 -16 -15 -24 -33z"/>
<path d="M6992 13158 c-16 -16 -15 -58 2 -80 12 -17 14 -17 28 0 19 21 17 57
-3 77 -12 12 -17 13 -27 3z"/>
<path d="M7037 13053 c-14 -4 -16 -11 -11 -41 12 -70 34 -96 91 -106 47 -8 52
-12 69 -50 22 -51 91 -136 110 -136 8 0 14 -4 14 -9 0 -5 12 -11 26 -14 26 -5
26 -4 22 50 -4 45 -10 59 -36 83 -18 16 -32 33 -32 39 0 18 -70 81 -91 81 -11
0 -44 24 -74 55 -29 30 -57 54 -62 54 -4 -1 -16 -3 -26 -6z"/>
<path d="M9975 12908 c-11 -46 12 -267 32 -303 21 -37 98 -103 134 -114 57
-18 237 -6 270 19 24 17 65 33 94 35 6 1 9 7 7 15 -4 17 -23 31 -33 24 -4 -2
-10 0 -14 6 -9 15 -41 12 -55 -5 -16 -19 -50 -19 -85 -1 -18 10 -35 12 -50 6
-33 -13 -124 -3 -153 16 -62 40 -107 134 -118 244 -7 73 -19 97 -29 58z"/>
<path d="M13996 12883 c-3 -16 -8 -50 -11 -78 -4 -27 -15 -78 -26 -113 -27
-86 -12 -110 29 -47 16 26 22 50 22 91 0 47 3 57 20 61 17 5 20 14 20 59 0 50
-2 54 -24 54 -19 0 -26 -7 -30 -27z"/>
<path d="M10523 12855 c-35 -8 -76 -21 -93 -30 -37 -19 -100 -74 -100 -87 0
-5 16 -16 36 -24 21 -9 43 -22 51 -30 9 -8 34 -14 63 -14 61 0 80 -7 80 -31 0
-14 7 -19 30 -19 17 0 39 6 50 12 16 10 24 10 42 -1 19 -12 24 -11 39 8 23 28
69 29 69 1 0 -14 7 -20 21 -20 13 0 18 4 13 13 -6 9 -4 9 7 1 8 -6 22 -14 32
-17 15 -6 16 -2 11 36 -9 56 -26 80 -93 131 -105 81 -154 94 -258 71z"/>
<path d="M11345 12734 c-38 -19 -87 -52 -107 -72 -55 -52 -49 -76 11 -43 26
14 95 2 135 -24 13 -8 25 -13 28 -10 3 3 11 -1 18 -10 7 -8 18 -15 25 -15 7 0
18 -6 24 -14 16 -19 -1 -54 -32 -65 -24 -9 -55 -57 -44 -68 4 -4 47 -6 96 -5
70 2 102 8 145 27 35 15 56 31 56 41 0 10 -6 14 -14 11 -19 -8 -58 22 -52 39
3 8 -1 17 -9 20 -10 4 -15 21 -15 53 0 60 -42 120 -103 150 -59 29 -81 27
-162 -15z"/>
<path d="M11091 12501 c-7 -5 -12 -14 -10 -20 3 -6 9 -7 18 -2 7 5 12 14 10
20 -3 6 -9 7 -18 2z"/>
<path d="M7346 12484 c-7 -18 0 -34 15 -34 12 0 12 37 0 44 -5 3 -12 -1 -15
-10z"/>
<path d="M10504 12429 c-42 -21 -106 -44 -115 -41 -4 1 -5 -8 -2 -18 4 -16 0
-20 -20 -20 -14 0 -33 -8 -43 -17 -13 -13 -19 -14 -22 -5 -7 23 -40 12 -90
-33 -27 -25 -53 -55 -57 -67 -4 -13 -31 -45 -62 -73 -51 -46 -56 -49 -68 -31
-19 25 -49 13 -74 -29 -21 -36 -26 -38 -73 -35 -33 2 -45 -17 -22 -35 21 -16
8 -20 -16 -5 -17 10 -50 -14 -50 -37 0 -7 -13 -21 -30 -31 -16 -10 -43 -36
-58 -58 -16 -21 -39 -48 -51 -58 -21 -19 -21 -19 -21 0 0 15 -12 23 -46 33
-42 13 -47 12 -67 -7 -12 -11 -33 -22 -47 -24 -20 -2 -25 -9 -25 -33 -1 -33
-11 -55 -26 -55 -5 0 -7 11 -3 25 8 32 -3 32 -57 -5 -24 -16 -49 -30 -56 -30
-6 0 -19 -7 -28 -16 -14 -15 -14 -18 0 -40 12 -19 13 -24 2 -24 -18 0 -61 -46
-53 -58 3 -6 -11 -17 -32 -25 -32 -13 -43 -25 -65 -75 -17 -38 -35 -63 -52
-70 -25 -12 -27 -36 -2 -27 7 3 21 -2 32 -11 16 -12 17 -17 7 -32 -7 -9 -16
-26 -21 -37 -5 -11 -25 -35 -46 -53 -35 -32 -36 -35 -19 -53 15 -17 19 -18 34
-4 9 8 22 15 28 15 6 0 16 8 21 18 6 9 11 12 11 5 0 -8 14 -10 40 -8 38 4 40
3 34 -20 -7 -27 5 -32 34 -16 14 7 17 4 18 -21 1 -20 -3 -28 -12 -24 -23 9
-38 -21 -26 -49 l12 -25 20 20 c28 28 42 25 38 -7 -2 -16 0 -28 4 -28 16 0 40
-47 34 -68 -6 -26 0 -37 31 -55 18 -10 31 -10 62 0 45 14 55 40 46 117 -6 49
-2 59 31 78 17 9 24 9 33 0 7 -7 33 -13 59 -14 26 -2 67 -4 90 -6 50 -4 68 16
37 39 -26 19 -8 32 35 27 24 -3 39 -12 45 -26 7 -14 20 -22 38 -23 26 -1 28 1
21 25 -15 55 -11 74 21 83 17 5 50 9 75 10 25 1 53 8 62 15 29 25 53 12 51
-27 -6 -81 22 -106 51 -47 28 53 67 102 79 99 7 -1 22 -7 33 -13 18 -9 28 -7
53 12 53 39 237 42 494 9 81 -11 102 -11 123 0 14 8 42 14 62 14 84 1 280 -15
317 -25 22 -6 63 -14 91 -19 28 -4 60 -12 70 -18 11 -5 37 -12 58 -15 22 -4
62 -17 90 -31 28 -13 66 -27 84 -31 18 -4 61 -29 95 -57 54 -43 66 -49 92 -42
61 14 78 11 85 -16 4 -14 3 -30 -2 -36 -5 -8 2 -16 22 -24 40 -17 61 -56 47
-87 -6 -13 -7 -26 -4 -29 9 -9 113 13 150 31 39 19 76 19 98 -1 25 -22 41 -10
29 22 -17 44 -12 72 13 76 19 3 22 9 22 48 0 36 6 52 28 75 15 16 27 39 27 51
0 48 38 35 65 -23 10 -21 20 -32 23 -25 2 7 0 18 -6 25 -5 7 -15 28 -21 48 -9
29 -18 37 -49 45 -33 8 -37 13 -40 46 -2 20 -10 42 -18 48 -8 7 -14 18 -14 24
0 18 -47 56 -70 56 -13 0 -20 7 -20 20 0 31 -40 80 -66 80 -12 0 -27 7 -34 15
-7 8 -21 15 -31 15 -15 0 -19 -7 -19 -37 0 -36 0 -36 -20 -18 -18 16 -23 17
-45 5 -14 -7 -27 -11 -30 -8 -3 3 -7 33 -8 67 -1 50 -4 61 -18 61 -11 0 -19 9
-21 22 -2 13 -11 24 -22 26 -17 4 -18 0 -12 -39 4 -24 15 -53 25 -64 25 -29
42 -73 30 -80 -5 -4 -6 -12 -2 -18 4 -7 -10 3 -30 21 -21 17 -42 32 -47 32
-15 0 -41 63 -30 74 14 14 13 69 -3 99 -7 13 -29 40 -50 59 -20 20 -37 43 -37
52 0 9 -4 16 -10 16 -5 0 -10 11 -10 25 0 17 -8 29 -25 37 -31 14 -40 6 -26
-20 19 -36 12 -46 -15 -22 -21 20 -27 22 -34 10 -6 -10 -4 -20 6 -31 7 -8 14
-25 14 -36 0 -16 -5 -19 -25 -15 -14 2 -25 2 -25 -2 0 -7 80 -84 119 -113 16
-13 43 -23 62 -23 18 0 29 -3 25 -7 -4 -5 -13 -8 -19 -8 -7 0 -13 -10 -15 -22
-2 -13 1 -23 7 -23 5 0 29 -21 53 -47 24 -26 56 -59 72 -74 18 -17 26 -33 23
-43 -3 -8 -2 -18 3 -21 6 -4 10 -20 10 -36 0 -17 5 -39 11 -51 13 -25 10 -28
-37 -32 -34 -4 -42 0 -83 44 -52 55 -86 68 -85 33 1 -26 -18 -30 -36 -9 -8 11
-18 12 -35 6 -14 -5 -41 -7 -62 -4 -21 3 -59 7 -85 7 -25 1 -44 5 -42 9 9 14
-24 22 -96 24 -77 1 -96 4 -116 17 -7 4 -17 0 -24 -8 -16 -19 -49 -19 -74 0
-25 19 -56 19 -56 1 0 -7 -14 -16 -32 -19 -50 -7 -160 3 -181 18 -14 10 -27
11 -45 4 -14 -6 -64 -8 -110 -5 -71 4 -90 9 -124 32 -33 23 -41 25 -49 13 -5
-8 -9 -16 -9 -19 0 -5 -92 -5 -97 0 -10 8 -54 1 -68 -10 -12 -10 -21 -11 -33
-3 -9 5 -26 8 -37 7 -11 -2 -64 -6 -119 -9 -78 -4 -105 -1 -133 12 -24 11 -37
13 -45 5 -6 -6 -17 -8 -25 -5 -11 4 -10 8 4 18 17 13 17 14 0 21 -10 3 -20 4
-23 1 -4 -3 -16 -2 -29 3 -18 7 -27 4 -41 -11 -18 -20 -44 -26 -44 -9 0 7 -6
7 -20 0 -15 -8 -24 -5 -44 17 l-25 27 -12 -27 c-17 -37 -35 -40 -66 -12 l-28
24 27 23 c14 13 31 33 38 46 8 17 15 20 24 13 8 -7 21 -4 41 9 16 10 32 17 36
14 4 -2 13 11 20 29 10 28 16 33 35 29 13 -2 30 3 39 12 9 9 24 16 32 16 16 0
103 87 103 102 0 5 9 8 20 8 10 0 35 11 54 24 19 13 57 26 84 30 30 4 56 14
67 26 11 12 31 20 51 20 20 0 51 13 84 35 48 32 55 34 93 25 35 -7 45 -6 62 9
12 11 44 21 81 25 65 7 70 4 127 -67 20 -25 38 -33 92 -37 52 -5 72 1 83 25
10 22 15 24 59 18 38 -4 52 -2 62 11 7 9 21 16 31 16 20 0 67 51 81 87 10 27
24 30 34 6 6 -17 7 -17 16 0 13 23 27 22 49 -5 l17 -22 25 27 c28 30 38 34 38
13 0 -23 -25 -63 -36 -59 -18 6 -64 -15 -64 -30 0 -14 58 -39 71 -31 5 3 9 12
9 20 0 17 5 17 31 4 10 -6 19 -19 19 -28 0 -19 18 -42 32 -42 4 0 8 9 8 19 0
11 5 23 10 26 6 3 10 17 10 31 0 30 18 31 29 2 12 -31 49 -64 60 -52 4 5 6 27
4 49 -4 32 -11 44 -34 57 -24 14 -31 15 -42 4 -7 -7 -22 -16 -34 -20 -17 -5
-23 -1 -31 24 -6 16 -9 30 -7 30 3 0 0 11 -5 25 -7 20 -6 25 5 25 10 0 15 10
15 29 0 42 -9 61 -30 61 -22 0 -35 16 -20 25 6 4 7 12 3 18 -7 12 -9 17 -12
36 0 5 -18 15 -38 21 -21 7 -47 21 -59 31 -15 14 -23 16 -32 7 -16 -16 -28 17
-13 36 15 18 -2 31 -50 40 -20 3 -44 15 -54 26 -24 27 -43 25 -57 -4 -6 -15
-21 -26 -36 -28 -19 -2 -32 -15 -49 -47 -13 -24 -23 -50 -23 -58 0 -16 -11
-17 -45 -1 -20 9 -31 9 -45 0 -21 -13 -30 1 -30 44 0 34 -24 30 -55 -10 -14
-19 -33 -37 -41 -40 -20 -8 -44 3 -44 20 0 8 -10 14 -23 14 -35 0 -39 10 -17
38 30 38 26 53 -12 45 -18 -3 -37 -6 -43 -7 -5 0 -9 8 -10 18 0 30 -47 38 -91
15z m386 -173 c0 -3 -4 -8 -10 -11 -5 -3 -10 -1 -10 4 0 6 5 11 10 11 6 0 10
-2 10 -4z m401 -88 c10 -13 18 -31 19 -41 0 -9 6 -26 13 -37 10 -17 9 -22 -3
-30 -21 -13 -33 3 -32 40 0 24 -5 33 -24 40 -23 9 -31 29 -17 43 11 12 24 8
44 -15z m-1291 -88 c0 -5 -4 -10 -10 -10 -5 0 -10 5 -10 10 0 6 5 10 10 10 6
0 10 -4 10 -10z m-178 -125 c5 -22 3 -24 -11 -13 -9 7 -18 13 -20 15 -5 3 10
23 18 23 5 0 11 -11 13 -25z m-37 -34 c3 -5 1 -12 -5 -16 -5 -3 -10 1 -10 9 0
18 6 21 15 7z m35 -215 c0 -3 -4 -8 -10 -11 -5 -3 -10 -1 -10 4 0 6 5 11 10
11 6 0 10 -2 10 -4z m2400 -297 c0 -5 -4 -9 -10 -9 -5 0 -10 7 -10 16 0 8 5
12 10 9 6 -3 10 -10 10 -16z m47 -66 c-15 -16 -17 -16 -17 -1 0 9 6 18 13 21
20 7 22 -2 4 -20z m9 -60 c-10 -10 -19 5 -10 18 6 11 8 11 12 0 2 -7 1 -15 -2
-18z"/>
<path d="M7170 12413 c-1 -5 -3 -25 -6 -45 -5 -34 -3 -38 16 -38 41 0 83 31
74 55 -9 23 -83 47 -84 28z"/>
<path d="M11347 12353 c-14 -13 -6 -33 12 -33 10 0 24 -7 31 -15 15 -18 51
-16 57 2 3 7 -14 21 -36 32 -43 22 -54 25 -64 14z"/>
<path d="M11480 12183 c0 -5 6 -18 14 -28 10 -14 11 -25 4 -41 -12 -25 -5 -54
12 -54 15 0 23 27 15 48 -4 9 -8 30 -9 47 -1 20 -7 31 -18 33 -10 2 -18 -1
-18 -5z"/>
<path d="M9640 11890 c0 -5 5 -10 10 -10 6 0 10 5 10 10 0 6 -4 10 -10 10 -5
0 -10 -4 -10 -10z"/>
<path d="M11546 11844 c-9 -23 -8 -24 17 -24 30 0 40 10 26 27 -15 18 -36 17
-43 -3z"/>
<path d="M11830 11791 c0 -50 8 -71 27 -71 13 0 14 9 8 48 -8 52 -12 62 -26
62 -5 0 -9 -18 -9 -39z"/>
<path d="M12026 11676 c3 -9 11 -16 16 -16 13 0 5 23 -10 28 -7 2 -10 -2 -6
-12z"/>
<path d="M10135 11600 c-3 -5 -1 -10 4 -10 6 0 11 5 11 10 0 6 -2 10 -4 10 -3
0 -8 -4 -11 -10z"/>
<path d="M9907 11533 c-13 -13 -7 -32 8 -27 8 4 15 12 15 20 0 15 -12 19 -23
7z"/>
<path d="M13583 11468 c-6 -7 -16 -31 -23 -53 -7 -22 -27 -52 -46 -68 -28 -23
-32 -33 -28 -56 7 -31 -1 -40 -40 -43 -14 -1 -26 -8 -26 -14 0 -6 -6 -17 -14
-23 -7 -6 -16 -25 -20 -41 -3 -17 -12 -30 -19 -30 -26 0 -62 -49 -59 -81 3
-23 0 -28 -13 -23 -10 4 -13 13 -10 25 3 10 -1 30 -11 44 l-16 25 -25 -26
c-25 -27 -25 -54 1 -54 21 0 85 -43 86 -57 0 -18 -45 -16 -60 2 -7 8 -22 15
-35 15 -12 0 -30 9 -40 20 -17 19 -45 27 -45 14 0 -17 43 -63 61 -66 14 -2 27
-16 36 -40 14 -36 14 -39 -8 -67 -51 -63 -59 -76 -59 -95 0 -11 -7 -27 -14
-35 -8 -9 -16 -36 -17 -59 -3 -36 -6 -43 -21 -39 -21 6 -37 -18 -35 -48 1 -14
-5 -21 -21 -23 -12 -2 -20 -8 -17 -13 4 -5 -5 -9 -18 -9 -32 0 -71 -42 -63
-68 9 -26 -14 -34 -49 -16 -15 8 -36 14 -46 14 -17 0 -18 -5 -13 -40 5 -32 3
-40 -8 -40 -24 0 -40 -24 -26 -38 8 -8 8 -12 1 -12 -18 0 -62 39 -75 68 -14
29 -35 32 -30 4 9 -47 7 -55 -17 -59 -34 -5 -37 -11 -22 -35 12 -19 11 -20 -9
-15 -14 4 -23 0 -27 -11 -15 -41 -24 -43 -63 -12 -35 28 -60 38 -60 24 0 -3
15 -24 33 -47 33 -41 58 -79 43 -65 -9 8 -66 -11 -66 -22 0 -4 7 -13 15 -20
19 -16 20 -51 2 -44 -8 3 -19 -2 -26 -10 -7 -8 -20 -12 -28 -9 -13 5 -15 2 -9
-18 4 -13 8 -28 9 -34 2 -5 6 -16 10 -23 6 -8 0 -15 -17 -22 -29 -10 -47 -73
-27 -93 15 -15 14 -27 -3 -27 -8 0 -16 7 -20 15 -7 20 -36 19 -36 -1 0 -9 -7
-14 -18 -12 -24 4 -68 -40 -53 -55 7 -7 16 -5 31 8 19 17 20 17 30 -9 7 -20 7
-33 -2 -49 -7 -12 -11 -29 -10 -37 1 -10 -1 -11 -4 -2 -10 21 -44 13 -56 -13
-14 -30 -27 -31 -72 -5 l-35 19 19 -34 c19 -35 19 -36 1 -54 -12 -12 -27 -17
-40 -14 -12 3 -21 1 -21 -6 0 -6 5 -11 12 -11 9 0 9 -3 0 -12 -18 -18 15 -53
35 -37 11 9 12 8 7 -5 -3 -9 -1 -23 6 -31 7 -9 8 -15 2 -15 -5 0 -13 7 -16 16
-3 8 -10 13 -16 9 -12 -7 -50 30 -50 49 0 15 -105 116 -121 116 -15 0 -10 -19
16 -58 30 -44 16 -55 -20 -15 -17 20 -27 24 -33 16 -5 -8 -13 -9 -22 -3 -8 6
-26 10 -39 10 -24 0 -24 0 -5 -21 17 -19 18 -21 1 -30 -9 -6 -17 -17 -17 -24
0 -18 -12 -19 -28 -3 -16 16 -29 1 -16 -20 8 -13 6 -21 -8 -34 -18 -18 -19
-18 -22 4 -2 19 -35 22 -42 4 -3 -9 2 -28 11 -43 16 -24 16 -26 1 -20 -10 4
-19 1 -22 -8 -4 -8 -15 -15 -25 -15 -10 0 -18 -3 -17 -7 3 -9 -5 -13 -23 -13
-7 0 -9 10 -5 25 4 14 2 25 -4 25 -5 0 -10 -8 -10 -18 0 -10 -9 -25 -20 -35
-11 -9 -17 -23 -14 -32 4 -10 0 -15 -15 -15 -12 0 -21 -4 -21 -10 0 -17 -18
-11 -25 8 -6 18 -74 66 -82 58 -11 -10 8 -56 22 -56 8 0 15 -4 15 -9 0 -15
-24 -19 -35 -5 -14 18 -65 29 -65 14 0 -7 -8 -9 -20 -5 -14 5 -20 2 -20 -9 0
-23 -17 -20 -31 6 -11 20 -12 21 -25 4 -8 -12 -19 -16 -33 -11 -20 6 -26 -3
-22 -28 1 -5 -7 -6 -18 -2 -22 7 -51 -26 -51 -58 0 -14 -5 -17 -20 -12 -14 5
-20 2 -20 -10 0 -9 -6 -23 -14 -30 -11 -11 -13 -9 -14 17 -1 37 -6 43 -29 33
-10 -5 -24 -7 -31 -6 -8 1 -16 -7 -19 -18 -7 -27 -29 -34 -56 -17 -12 7 -34
16 -49 20 -16 4 -28 13 -28 21 0 20 -9 19 -32 -2 -19 -17 -19 -16 -13 10 10
39 -20 36 -41 -4 -18 -36 -34 -25 -26 18 5 25 5 25 -25 9 -17 -8 -33 -22 -37
-31 -10 -27 -29 -5 -22 26 3 15 1 31 -5 35 -6 3 -8 21 -4 43 4 25 1 42 -9 56
-13 17 -15 18 -16 3 0 -10 -10 -22 -21 -29 -30 -16 -44 8 -21 35 17 18 16 19
-30 14 l-48 -6 0 42 -1 41 -30 -33 c-30 -33 -31 -33 -50 -16 -16 14 -19 26
-14 51 4 25 2 34 -14 42 -33 18 -51 13 -51 -13 0 -14 4 -27 9 -31 6 -3 7 -27
4 -54 -5 -42 -3 -49 15 -53 16 -5 20 -13 19 -43 l-1 -37 -28 31 c-15 17 -35
31 -43 31 -10 0 -15 10 -15 35 0 19 -3 35 -7 35 -4 0 -23 -15 -41 -32 -31 -30
-34 -31 -29 -11 6 28 -8 40 -18 15 -6 -16 -7 -16 -20 1 -9 12 -12 38 -8 80 l4
62 -20 -24 c-12 -13 -21 -36 -21 -52 0 -15 -4 -31 -10 -34 -6 -3 -10 5 -10 19
0 27 -15 43 -25 26 -4 -6 -11 -8 -16 -4 -6 3 -6 10 -1 17 5 7 13 22 16 35 9
27 -18 31 -46 5 -10 -9 -21 -13 -26 -9 -4 4 8 21 26 37 20 18 32 38 32 54 0
14 -3 25 -7 25 -12 -1 -38 -23 -47 -40 -17 -37 -35 -63 -47 -71 -10 -6 -10
-10 0 -23 12 -14 10 -16 -18 -16 -36 0 -40 13 -11 33 13 9 18 20 14 31 -7 18
-20 21 -29 6 -3 -5 -13 -10 -22 -10 -9 0 -24 -10 -34 -21 -10 -12 -25 -19 -33
-16 -9 4 -23 -4 -36 -20 -11 -14 -21 -24 -23 -22 -34 59 -36 101 -7 126 24 21
26 39 4 47 -26 10 -44 7 -44 -9 0 -8 -8 -30 -17 -49 -14 -28 -23 -35 -43 -33
-14 2 -29 13 -35 25 -5 11 -20 26 -32 33 -21 11 -27 10 -46 -9 -19 -19 -20
-24 -7 -32 8 -5 12 -11 9 -14 -3 -3 -20 4 -38 15 -28 17 -32 24 -27 45 7 27
-9 58 -25 48 -5 -3 -9 11 -9 30 0 19 5 38 10 41 6 3 10 10 10 14 0 11 -53 33
-71 31 -47 -7 -75 27 -63 74 7 30 -9 35 -36 11 -9 -8 -31 -18 -49 -21 l-33 -7
7 42 c7 44 5 47 -26 31 -11 -6 -25 -8 -32 -3 -6 4 -24 6 -39 4 -16 -1 -28 1
-28 5 0 10 30 33 59 45 19 8 21 12 11 24 -7 8 -23 15 -35 15 -37 0 -51 25 -31
55 9 14 22 25 28 25 6 0 8 3 5 6 -4 4 -13 1 -21 -5 -9 -8 -16 -9 -21 -2 -3 6
3 18 15 28 11 10 20 23 20 30 0 8 12 13 30 13 19 0 33 6 37 16 7 20 -12 33
-38 27 -14 -4 -19 0 -19 16 0 13 -4 19 -11 16 -6 -4 -8 -13 -5 -21 6 -17 -38
-49 -54 -39 -8 5 -4 12 10 22 12 8 19 21 16 28 -2 7 4 26 14 43 18 29 18 30
-1 35 -10 3 -19 2 -19 -2 0 -4 -24 -15 -52 -25 -29 -10 -67 -27 -85 -38 -20
-12 -34 -15 -38 -8 -9 15 -42 12 -49 -5 -9 -25 -36 -18 -36 10 0 14 -4 25 -9
25 -15 0 -32 -27 -26 -42 3 -7 -1 -22 -9 -33 -14 -19 -15 -19 -21 -2 -4 9 -2
23 4 30 7 9 7 17 0 24 -7 7 -5 14 6 23 8 7 15 18 15 26 0 23 -18 25 -39 3 -16
-17 -18 -26 -10 -36 19 -22 -9 -46 -44 -39 -39 8 -60 -9 -46 -36 9 -16 7 -24
-10 -39 -23 -21 -75 -26 -68 -6 2 6 9 12 15 12 16 0 16 18 0 21 -7 1 -30 10
-51 19 -39 16 -40 24 -7 55 10 10 40 60 36 60 -2 0 -26 -9 -51 -20 l-47 -20 4
25 c3 15 -2 32 -13 43 -13 15 -15 22 -6 31 8 8 5 11 -11 11 -26 0 -27 2 -7 41
14 26 14 30 0 35 -9 4 -24 -1 -34 -10 -10 -9 -22 -16 -28 -16 -16 0 -24 29
-13 49 6 12 6 21 -1 28 -11 11 -2 43 12 43 19 0 8 31 -14 39 -13 5 -31 16 -40
25 -14 14 -14 20 -2 43 18 35 3 55 -39 51 -27 -3 -31 0 -31 22 0 19 -6 25 -25
25 -24 0 -25 2 -22 62 2 55 0 64 -20 76 -13 8 -41 18 -63 21 -65 11 -76 16
-85 42 -12 31 -31 30 -61 -2 -24 -27 -24 -27 -2 -22 33 9 44 -11 27 -50 -20
-48 -40 -37 -64 32 l-11 29 -15 -21 c-8 -13 -20 -20 -25 -17 -17 11 -10 54 11
65 11 6 20 8 20 4 0 -3 7 -1 15 6 24 20 18 35 -17 45 -32 10 -32 11 -30 65 2
35 -2 62 -11 74 -13 18 -15 17 -21 -15 -3 -20 0 -59 9 -92 8 -32 15 -59 15
-61 0 -2 -9 -6 -21 -9 -17 -5 -19 -11 -14 -40 7 -35 -7 -77 -25 -77 -6 0 -10
8 -10 17 0 14 -5 12 -27 -9 -40 -36 -79 -41 -98 -12 -8 13 -15 32 -15 44 0 26
-17 26 -40 -2 -17 -21 -16 -24 3 -67 15 -34 17 -49 8 -62 -12 -21 -8 -24 39
-33 24 -4 39 -14 47 -31 14 -32 -5 -35 -32 -5 -27 30 -51 25 -59 -11 -13 -68
-2 -113 20 -78 4 8 9 7 15 -2 14 -23 10 -44 -10 -54 -57 -30 -101 -67 -101
-84 0 -23 48 -83 60 -76 4 3 13 -2 20 -10 10 -12 9 -15 -4 -15 -11 0 -16 -9
-16 -30 0 -23 6 -33 24 -40 21 -7 25 -17 31 -72 7 -68 21 -114 42 -139 15 -18
43 -105 43 -135 0 -24 79 -182 111 -223 12 -14 27 -39 35 -56 8 -16 23 -46 34
-65 25 -45 24 -50 -2 -47 -17 2 -23 -5 -30 -33 -9 -41 -1 -111 19 -159 13 -30
13 -35 0 -42 -9 -5 -13 -18 -10 -33 3 -13 0 -34 -7 -46 -9 -17 -9 -25 4 -39
22 -24 20 -41 -4 -41 -26 0 -25 -18 1 -92 16 -47 18 -62 9 -73 -7 -8 -16 -13
-20 -10 -5 3 -7 -2 -6 -11 1 -8 9 -20 17 -24 11 -7 11 -12 1 -22 -13 -13 -17
-40 -4 -35 8 2 12 -6 12 -29 0 -8 -4 -12 -10 -9 -5 3 -10 -1 -10 -9 0 -9 5
-15 11 -13 16 3 18 -71 3 -84 -8 -6 -11 -15 -8 -21 3 -5 -1 -20 -10 -33 -23
-35 -20 -44 14 -39 23 4 30 1 30 -11 0 -11 -7 -15 -22 -13 -13 2 -23 -1 -23
-7 -1 -5 -4 -27 -8 -47 -7 -31 -4 -42 13 -60 l20 -22 -27 -15 c-45 -23 -54
-41 -49 -95 5 -44 3 -51 -22 -70 -28 -22 -78 -29 -99 -13 -7 5 -13 27 -13 49
0 21 -7 53 -16 69 -33 65 -47 203 -48 487 0 260 -7 328 -22 225 -3 -27 -21
-95 -39 -153 -36 -116 -59 -215 -77 -333 -7 -44 -19 -85 -28 -95 -16 -17 -21
-30 -40 -121 -6 -25 -17 -52 -25 -61 -14 -15 -13 -20 5 -43 26 -33 25 -49 -5
-77 -29 -28 -30 -32 -9 -75 14 -30 14 -36 0 -63 -8 -16 -40 -52 -71 -78 -30
-27 -55 -56 -55 -65 0 -26 -22 -38 -63 -34 -57 5 -79 -28 -46 -71 5 -6 -1 -20
-16 -34 -13 -12 -27 -35 -30 -51 -5 -20 -17 -34 -41 -45 -19 -9 -49 -32 -67
-50 -18 -20 -41 -34 -55 -34 -28 0 -58 25 -41 35 6 4 8 18 4 34 -4 14 -9 36
-11 47 -4 24 -25 67 -35 74 -4 3 -15 -2 -25 -12 -11 -9 -36 -23 -56 -31 -21
-9 -38 -22 -38 -30 0 -18 24 -39 34 -30 14 15 37 11 33 -5 -2 -9 -8 -16 -15
-15 -6 2 -9 -4 -6 -12 5 -12 -1 -14 -32 -10 -35 5 -87 14 -121 21 -20 4 -46
-33 -36 -51 6 -9 13 -16 16 -16 23 3 28 -1 25 -21 -2 -13 -15 -29 -30 -36 -22
-10 -28 -20 -28 -47 0 -18 4 -35 9 -37 9 -3 -8 -104 -22 -125 -5 -7 -14 -13
-22 -13 -12 0 -20 20 -31 74 -2 11 -9 23 -16 27 -10 6 -10 20 0 65 11 53 10
60 -8 79 -11 12 -20 35 -20 51 0 17 -5 35 -11 41 -9 9 -9 26 -1 69 8 39 9 61
2 69 -11 13 11 40 23 28 4 -3 7 5 7 20 0 14 -5 29 -11 33 -14 9 -30 -16 -25
-38 6 -26 -37 -48 -50 -27 -3 6 -11 6 -17 1 -7 -5 -23 -8 -37 -8 -33 1 -33 28
0 36 27 6 35 27 21 49 -12 19 -108 25 -141 8 -14 -6 -46 -26 -72 -44 -57 -40
-76 -41 -84 -8 -8 31 -22 31 -68 0 -20 -14 -51 -27 -69 -29 -18 -2 -44 -7 -59
-10 -16 -3 -39 -8 -53 -11 -29 -6 -32 -21 -9 -46 21 -23 11 -65 -16 -74 -11
-3 -20 -12 -20 -19 0 -6 -11 -12 -25 -12 -19 0 -25 5 -25 23 0 19 -3 21 -22
15 -30 -11 -58 -4 -58 13 0 13 -21 25 -45 25 -16 0 -11 -43 5 -48 5 -2 10 -10
10 -17 0 -7 9 -15 20 -18 29 -7 25 -36 -7 -48 -16 -5 -35 -12 -43 -16 -8 -3
-21 -7 -28 -9 -8 -1 -15 -4 -16 -6 -28 -47 -62 -88 -72 -88 -8 0 -14 -7 -14
-16 0 -13 -3 -14 -15 -4 -13 11 -13 14 0 27 8 8 15 20 16 26 1 23 8 72 13 95
3 12 3 22 0 22 -11 0 -82 -78 -85 -94 -3 -12 -20 -24 -54 -34 -27 -8 -64 -20
-80 -28 -17 -7 -42 -15 -55 -18 -46 -8 -60 -18 -60 -41 0 -13 -4 -27 -10 -30
-14 -9 -13 -48 2 -63 15 -15 51 -15 66 0 20 20 39 17 38 -6 -1 -11 5 -21 12
-22 6 -1 15 -2 20 -3 4 0 13 -10 20 -22 8 -12 9 -18 3 -14 -6 3 -11 2 -11 -4
0 -5 -10 -13 -22 -17 -13 -3 -31 -13 -40 -22 -16 -13 -20 -13 -42 1 -22 15
-25 15 -39 -1 -15 -17 -28 -74 -28 -124 0 -48 -12 -46 -66 12 l-33 35 25 29
c14 16 26 33 26 38 1 4 2 11 3 16 13 46 16 101 6 122 -9 21 -10 21 -6 3 2 -13
-1 -20 -8 -17 -14 5 -28 -5 -42 -31 -14 -25 -56 -31 -73 -11 -11 13 -15 13
-27 1 -11 -11 -21 -12 -47 -3 -17 6 -38 15 -45 21 -9 7 -17 4 -27 -9 -17 -22
-19 -44 -5 -44 16 0 12 -31 -6 -51 -9 -10 -14 -25 -11 -33 5 -12 12 -13 37 -5
16 6 30 15 30 20 0 5 15 9 33 9 18 0 38 5 44 11 9 9 10 7 6 -9 -3 -12 -9 -19
-14 -16 -5 3 -9 -2 -9 -10 0 -11 -9 -16 -26 -16 -25 0 -26 -1 -20 -49 l6 -50
-28 5 c-15 3 -40 17 -55 32 -30 29 -52 24 -72 -14 -5 -10 -19 -21 -30 -22 -27
-5 -39 -18 -40 -44 0 -13 -11 -28 -30 -38 -16 -9 -40 -31 -52 -49 l-22 -33 -7
27 c-3 14 -4 44 0 65 6 37 4 40 -17 40 -13 0 -27 -4 -33 -10 -5 -5 -21 -11
-34 -14 -14 -2 -24 -9 -22 -16 1 -6 -2 -9 -7 -6 -5 4 -16 0 -24 -8 -8 -9 -34
-14 -67 -13 -34 0 -55 -4 -58 -12 -2 -7 -21 -22 -41 -35 -40 -25 -46 -51 -22
-95 9 -16 10 -26 2 -34 -17 -17 -66 11 -84 49 -14 29 -21 34 -43 30 -19 -4
-31 1 -43 15 -17 22 -51 17 -51 -6 0 -8 -9 -16 -19 -20 -22 -7 -28 -26 -23
-67 3 -16 9 -25 15 -21 6 3 7 1 3 -6 -6 -9 -11 -9 -23 1 -9 7 -17 11 -17 9 -1
-2 -12 -1 -24 4 -25 7 -26 23 -7 81 12 39 -23 38 -59 0 -17 -19 -43 -37 -57
-41 -21 -5 -28 -14 -33 -44 -3 -20 -12 -45 -19 -55 -12 -17 -18 -18 -48 -7
-18 6 -46 23 -61 37 -19 19 -26 22 -24 10 1 -8 5 -18 8 -21 6 -7 -18 -62 -32
-70 -4 -3 -23 1 -41 9 -19 8 -38 15 -44 15 -27 3 -44 14 -47 29 -3 13 -10 10
-36 -17 -38 -40 -39 -47 -10 -78 19 -20 20 -25 8 -33 -10 -7 -19 -5 -26 5 -14
19 -40 19 -91 1 -46 -16 -58 -12 -72 27 -18 46 -81 32 -81 -18 0 -24 -32 -59
-43 -48 -4 3 -7 17 -7 29 0 41 -46 55 -62 18 -9 -18 -8 -30 2 -50 12 -22 12
-27 0 -34 -9 -6 -17 -5 -21 2 -9 15 -25 -10 -28 -46 -1 -12 -9 -11 -48 3 -46
16 -48 19 -46 53 2 24 -3 41 -17 53 -19 17 -20 17 -29 -6 -6 -17 -5 -29 5 -40
20 -22 18 -30 -19 -66 l-34 -33 -23 27 -23 27 -27 -32 c-30 -36 -45 -39 -72
-15 -25 23 -49 8 -61 -38 -13 -50 -19 -52 -70 -25 -58 30 -77 28 -102 -12 -27
-43 -48 -42 -40 1 5 25 2 39 -10 50 -21 22 -27 21 -75 -3 -42 -21 -76 -76 -72
-117 3 -32 -7 -29 -19 7 -6 17 -15 30 -20 30 -5 0 -9 6 -9 13 0 10 -12 13 -45
10 -42 -5 -60 7 -36 21 5 3 7 15 4 25 -6 23 -34 21 -42 -2 -4 -9 -25 -27 -48
-39 -23 -13 -42 -26 -43 -31 0 -9 -23 -35 -30 -35 -25 1 -37 -5 -45 -24 -6
-13 -27 -31 -49 -41 -47 -22 -60 -13 -64 46 -1 23 -4 56 -5 72 -2 33 -28 50
-55 36 -23 -12 -62 -55 -76 -82 -16 -31 -29 -29 -38 8 -5 18 -17 34 -29 38
-16 5 -20 15 -19 48 1 55 -10 129 -22 144 -20 25 -28 0 -28 -95 0 -53 -1 -108
-2 -122 -1 -14 1 -41 5 -61 6 -30 3 -40 -18 -63 l-26 -28 -39 36 c-43 38 -52
43 -45 23 4 -9 -7 -11 -40 -9 -39 4 -46 7 -51 31 -9 36 -13 41 -28 35 -32 -12
-45 -78 -50 -262 -4 -135 -6 -146 -30 -181 -14 -20 -26 -42 -26 -47 0 -6 -11
-21 -25 -34 -23 -21 -25 -31 -25 -106 0 -60 5 -93 20 -125 11 -24 20 -56 20
-70 0 -14 11 -42 24 -61 36 -53 49 -104 43 -162 -4 -28 -2 -68 2 -89 14 -58
-17 -81 -73 -56 -20 10 -28 9 -41 -5 -9 -9 -19 -16 -22 -16 -4 0 -3 3 0 6 4 4
-9 15 -29 26 -35 19 -36 19 -81 -4 -53 -26 -72 -57 -56 -91 18 -37 36 -115 30
-131 -4 -9 -15 -13 -26 -11 -13 2 -22 -3 -26 -16 -4 -10 -11 -19 -16 -19 -12
0 -12 -67 1 -72 6 -2 12 -17 13 -33 2 -24 -2 -30 -18 -30 -11 0 -25 11 -32 26
-7 15 -24 30 -38 33 -14 4 -25 11 -25 17 0 6 -5 7 -10 4 -18 -11 -50 6 -50 26
0 11 5 17 10 14 6 -3 10 1 10 9 0 9 -3 15 -7 14 -5 -1 -20 6 -35 16 -35 23
-44 16 -52 -36 -4 -23 -11 -47 -16 -53 -6 -7 -6 -32 0 -66 6 -30 13 -72 16
-94 3 -22 9 -49 14 -60 4 -11 13 -47 20 -80 6 -33 15 -76 20 -95 5 -19 14 -60
21 -90 6 -30 15 -66 19 -80 5 -14 20 -72 35 -130 15 -58 35 -134 46 -170 10
-36 19 -73 19 -83 0 -9 4 -25 9 -35 15 -27 141 -425 141 -442 0 -9 4 -20 9
-25 5 -6 14 -28 21 -50 6 -22 20 -59 31 -82 10 -24 19 -47 19 -53 0 -6 4 -18
9 -28 5 -9 24 -55 41 -102 18 -47 36 -94 40 -105 5 -11 13 -33 18 -50 5 -16
58 -140 117 -275 124 -281 280 -596 405 -820 48 -85 98 -175 112 -200 59 -106
64 -114 270 -445 41 -66 90 -141 109 -166 18 -25 70 -98 114 -163 104 -153
416 -554 565 -726 l116 -135 2272 -3 2271 -2 5 32 c3 18 8 62 11 98 7 73 25
161 56 265 31 106 35 118 114 310 18 44 10 57 -31 49 -49 -9 -64 8 -64 70 0
121 25 167 101 185 24 6 69 18 99 25 30 8 84 19 120 24 76 11 202 37 280 57
30 7 100 18 155 24 143 14 250 30 325 47 36 8 80 14 98 14 18 0 134 20 258 45
123 25 239 45 257 45 18 0 64 9 102 20 38 11 87 20 107 20 21 0 57 6 80 14 24
7 109 24 190 36 125 20 151 21 178 10 76 -31 93 -113 38 -176 -39 -45 -82 -64
-142 -64 -24 0 -91 -9 -148 -20 -56 -12 -142 -25 -190 -30 -49 -5 -92 -11 -97
-15 -5 -3 -49 -12 -98 -20 -93 -15 -246 -43 -378 -69 -187 -37 -233 -45 -295
-52 -36 -3 -84 -12 -108 -20 -23 -8 -64 -14 -90 -14 -100 0 -384 -64 -418 -94
-30 -26 -97 -189 -89 -216 4 -12 24 -24 59 -34 39 -12 61 -25 80 -51 32 -41
48 -43 101 -10 53 33 70 31 112 -10 20 -19 40 -35 44 -35 4 0 17 13 28 29 24
34 68 54 107 49 22 -2 33 -11 43 -35 17 -39 33 -41 76 -8 49 37 143 75 185 75
30 0 44 -6 64 -31 14 -17 26 -42 26 -55 0 -36 27 -41 58 -12 80 74 209 138
278 138 48 0 61 -12 78 -72 7 -23 19 -44 26 -46 7 -3 59 43 116 102 79 81 110
106 129 106 78 0 89 -66 24 -144 -41 -50 -50 -94 -21 -104 20 -6 269 247 276
281 3 15 8 38 11 52 3 14 10 25 16 25 31 0 86 40 132 94 60 73 114 108 160
104 29 -3 32 -6 32 -38 0 -19 -4 -47 -8 -62 -6 -24 -3 -29 24 -44 30 -15 31
-18 25 -62 -6 -46 -5 -47 32 -67 36 -20 37 -21 42 -90 7 -100 25 -96 116 24
56 75 80 99 114 113 24 11 53 18 64 16 27 -4 33 -46 12 -87 -38 -72 -7 -68 75
11 36 35 89 97 118 138 29 41 67 94 84 117 52 67 104 142 171 243 109 166 126
189 156 210 65 46 67 -12 4 -118 -70 -119 -162 -262 -238 -369 -38 -54 -71
-105 -74 -113 -3 -8 -17 -33 -32 -55 -34 -51 -74 -135 -67 -141 6 -7 70 58
142 145 109 133 125 149 188 190 51 33 72 41 110 41 58 0 72 -21 64 -92 -6
-45 -4 -49 19 -58 14 -6 40 -10 58 -10 65 0 78 -60 15 -70 -45 -8 -60 -18
-184 -135 -213 -199 -296 -235 -351 -150 -9 14 -24 25 -34 25 -9 0 -40 -28
-69 -61 -65 -78 -114 -117 -156 -125 -49 -9 -72 3 -85 41 -6 19 -16 35 -22 35
-10 0 -125 -100 -212 -185 -28 -28 -73 -81 -101 -119 -27 -38 -56 -77 -64 -88
-13 -17 101 -18 3986 -18 l3998 0 65 77 c36 42 97 113 136 158 38 45 99 119
135 164 35 46 98 126 139 179 72 92 214 289 311 432 40 59 43 70 41 120 -1 30
-6 68 -12 85 -5 16 -19 91 -30 165 -11 74 -33 198 -50 275 -17 77 -40 185 -50
240 -71 369 -135 629 -225 905 -29 91 -66 208 -81 260 -15 52 -53 169 -84 260
-31 91 -76 226 -99 300 -24 74 -59 180 -78 235 -62 175 -120 358 -132 415 -6
30 -18 89 -26 130 -8 41 -26 102 -39 135 -13 33 -28 83 -34 110 -5 28 -19 93
-32 145 -12 52 -27 127 -35 165 -54 290 -122 551 -155 596 -16 20 -22 22 -52
13 -18 -5 -40 -8 -49 -6 -20 4 -39 43 -39 80 0 15 -7 41 -16 57 -9 17 -18 57
-20 89 -2 40 -10 66 -23 80 -10 12 -26 35 -34 52 -31 60 -116 143 -160 156
-23 6 -50 18 -59 26 -16 13 -19 12 -28 -12 -5 -15 -10 -31 -10 -36 0 -5 -7 -7
-16 -3 -12 4 -14 14 -10 35 10 50 -3 71 -67 116 -68 46 -293 142 -333 142 -14
0 -78 16 -144 35 -66 19 -133 35 -149 35 -17 0 -48 6 -68 14 -21 8 -63 18 -93
24 -200 38 -187 37 -241 18 -38 -14 -53 -16 -62 -7 -9 9 -8 14 3 21 13 8 13
10 -1 10 -9 0 -22 7 -29 15 -8 10 -30 15 -64 15 -28 0 -64 7 -80 15 -16 8 -53
18 -83 22 -32 3 -69 16 -89 29 -20 14 -50 24 -69 24 -19 0 -35 5 -35 11 0 5
-4 8 -9 4 -6 -3 -18 3 -28 14 -28 29 -60 35 -88 17 -30 -20 -55 -21 -55 -3 0
19 -29 42 -68 55 -19 6 -47 23 -63 36 -17 14 -47 30 -68 36 -21 5 -55 22 -76
36 -21 14 -55 28 -74 31 -20 3 -45 14 -56 24 -11 10 -22 18 -25 18 -15 -1 -60
22 -67 33 -4 7 -42 31 -83 52 -41 21 -82 44 -90 50 -8 7 -40 25 -70 40 -30 16
-91 47 -135 70 -44 22 -94 50 -110 62 -17 11 -57 31 -90 44 -33 13 -80 38
-105 55 -25 17 -74 40 -110 50 -36 10 -77 24 -92 32 -27 13 -80 18 -90 7 -3
-3 -4 -13 -1 -24 4 -16 27 -29 58 -34 5 0 11 -8 12 -16 8 -62 15 -90 22 -85 5
2 14 -2 21 -10 10 -12 16 -13 26 -4 8 6 14 17 14 24 0 20 36 46 54 39 17 -7
26 -34 23 -74 -2 -19 3 -26 21 -28 13 -2 32 4 41 12 16 15 19 14 36 -4 13 -14
29 -20 50 -18 16 1 29 -2 29 -7 -12 -94 -12 -112 4 -144 22 -44 49 -62 62 -41
5 8 7 23 4 33 -6 20 13 76 27 78 5 1 13 2 18 3 5 0 13 4 17 9 12 12 24 8 24
-8 0 -8 -4 -15 -10 -15 -14 0 -12 -36 3 -60 10 -17 9 -22 -2 -29 -14 -9 -7
-31 9 -31 5 0 21 5 35 10 22 8 25 13 16 24 -9 11 -8 18 5 31 16 15 19 14 48
-14 18 -17 37 -31 43 -31 7 0 18 -9 26 -20 8 -11 24 -22 35 -25 29 -5 72 -45
72 -67 0 -10 -4 -18 -8 -18 -21 0 -62 27 -71 47 -8 17 -29 23 -47 14 -1 -1 2
-17 6 -36 6 -25 4 -38 -6 -46 -18 -15 -17 -16 45 -39 37 -13 51 -15 51 -6 0
20 26 15 27 -5 3 -35 28 -72 51 -76 37 -5 56 28 57 100 0 102 45 135 64 48 8
-39 8 -55 -4 -77 -8 -15 -12 -31 -9 -36 7 -12 62 -10 69 3 15 23 29 1 27 -38
-3 -35 -1 -41 15 -39 10 2 23 13 29 24 11 22 11 22 29 2 18 -20 65 -28 65 -11
0 5 8 12 17 15 10 4 14 4 10 0 -11 -11 13 -34 35 -34 17 0 19 -4 13 -27 -8
-35 -24 -55 -37 -47 -6 4 -24 8 -40 9 -22 2 -31 -3 -38 -19 -8 -22 6 -50 21
-40 5 3 9 0 9 -6 0 -22 31 -78 47 -84 23 -9 65 4 55 18 -5 6 -8 22 -8 36 1 32
46 43 46 11 0 -11 -4 -23 -10 -26 -5 -3 -10 -17 -10 -31 0 -14 4 -22 10 -19 6
3 10 -1 10 -10 0 -14 3 -14 29 -1 16 9 31 12 35 9 3 -4 6 15 6 41 0 39 -4 48
-22 55 -13 4 -17 10 -11 14 6 4 9 15 6 25 -2 10 5 26 16 36 20 18 21 18 27 0
22 -63 45 -104 58 -104 25 0 28 -18 9 -52 -26 -47 -35 -54 -66 -53 -18 1 -31
-5 -37 -16 -13 -23 -13 -32 0 -24 6 3 10 0 10 -9 0 -15 16 -16 37 -3 8 5 24
-5 43 -27 40 -45 67 -40 72 15 2 22 -1 44 -6 49 -5 5 -7 13 -3 16 9 9 38 -16
32 -26 -3 -5 -1 -12 5 -15 7 -4 10 -36 8 -78 l-3 -72 32 3 c28 3 34 -1 47 -31
8 -19 14 -51 13 -72 -1 -40 19 -61 41 -43 7 6 31 11 52 10 39 -2 40 -1 40 32
0 35 -21 50 -65 46 -16 -1 -18 1 -7 11 6 7 12 24 12 36 0 19 5 23 24 20 37 -5
56 -25 47 -50 -4 -13 -3 -31 4 -45 12 -22 12 -22 30 -2 10 11 21 18 25 15 4
-2 17 7 30 20 13 13 26 22 31 20 4 -3 10 -1 14 5 11 18 45 11 45 -9 0 -11 5
-23 10 -26 6 -3 10 -17 10 -31 0 -14 4 -22 10 -19 6 4 10 -5 10 -19 0 -19 5
-26 20 -26 11 0 20 -5 20 -11 0 -5 5 -7 11 -4 7 5 8 25 4 57 -5 34 -4 48 3 44
6 -3 13 -2 17 4 10 17 55 11 63 -7 4 -10 13 -19 21 -21 12 -3 12 0 1 13 -7 8
-10 18 -6 22 3 3 6 1 6 -6 0 -7 5 -9 10 -6 6 3 10 -1 10 -10 0 -10 5 -13 13
-9 9 6 9 4 -1 -8 -9 -12 -10 -18 -2 -23 8 -5 8 -11 -1 -21 -10 -13 -15 -12
-36 7 -12 13 -23 19 -23 15 0 -5 -7 -2 -16 5 -14 11 -15 10 -12 -7 1 -12 -3
-28 -10 -37 -8 -9 -14 -45 -15 -86 -1 -51 -6 -71 -15 -71 -7 0 -11 -4 -7 -9 3
-5 1 -12 -5 -16 -6 -3 -13 1 -16 9 -8 21 -38 20 -55 0 -7 -9 -13 -33 -13 -55
-1 -27 -6 -39 -16 -40 -8 -1 -24 -2 -34 -3 -11 0 -27 -14 -36 -31 -34 -62 -54
-40 -66 74 -4 44 -17 56 -57 56 -29 0 -32 3 -29 28 3 25 -18 59 -35 56 -4 0
-13 14 -19 33 -12 33 -37 48 -49 29 -3 -6 -14 -11 -25 -11 -21 0 -43 -51 -33
-77 5 -12 3 -14 -8 -7 -8 5 -21 9 -29 10 -13 1 -43 11 -62 21 -4 2 -18 -8 -31
-23 -25 -26 -25 -26 -32 -5 -6 21 -25 30 -25 12 0 -5 -10 -13 -22 -17 -34 -11
-47 -13 -47 -6 1 4 1 24 0 44 -1 29 -6 38 -23 44 -13 5 -26 7 -30 6 -5 -1 -8
3 -8 8 0 6 -11 10 -25 10 -14 0 -25 -5 -25 -12 0 -6 -3 -9 -6 -5 -4 3 -13 -1
-21 -9 -8 -8 -19 -11 -25 -8 -6 4 -8 2 -5 -3 9 -14 -19 -36 -50 -41 -24 -3
-25 -2 -18 45 6 44 4 50 -22 74 -15 14 -35 25 -43 24 -8 -1 -25 7 -37 18 -15
13 -28 17 -40 12 -10 -5 -21 -9 -25 -9 -21 -3 -17 -17 8 -27 17 -7 24 -13 16
-16 -7 -3 -19 0 -26 7 -9 7 -17 7 -20 1 -3 -5 -14 -8 -24 -6 -9 2 -20 4 -24 4
-5 1 -8 5 -8 10 0 6 8 8 18 6 11 -2 19 3 19 10 0 8 -4 12 -8 10 -4 -3 -9 13
-11 35 -4 40 19 80 35 63 4 -3 7 -1 7 5 0 5 -6 12 -12 14 -9 3 -7 13 7 34 11
16 20 34 20 39 2 15 -16 36 -25 30 -4 -3 -13 2 -20 10 -10 12 -16 13 -26 4
-16 -13 -19 -75 -4 -84 8 -5 7 -11 -1 -21 -6 -8 -8 -14 -3 -14 4 0 -4 -12 -18
-27 -14 -16 -28 -36 -31 -46 -4 -10 -12 -15 -18 -12 -7 5 -3 15 10 29 15 16
18 25 10 33 -7 7 -7 13 -1 17 7 4 6 16 -4 34 -18 35 -18 47 2 66 8 9 12 16 7
16 -4 0 -2 4 5 8 14 9 2 57 -14 57 -5 0 -8 3 -7 8 5 13 -44 7 -57 -8 -7 -8
-16 -13 -20 -10 -4 3 -13 -1 -19 -9 -14 -17 -44 -10 -67 15 -17 19 -18 19 -44
-6 -22 -22 -29 -23 -38 -12 -10 11 -5 23 21 58 18 24 31 52 29 62 -2 9 -7 15
-12 12 -5 -3 -15 2 -24 10 -16 16 -12 39 11 66 11 13 10 18 -7 34 -25 23 -25
41 0 62 35 30 19 79 -30 95 -25 9 -50 -20 -40 -47 7 -17 4 -28 -13 -46 -12
-13 -21 -27 -20 -31 2 -5 -4 -8 -13 -8 -8 0 -13 4 -10 9 3 4 -3 16 -13 25 -12
11 -21 13 -25 7 -4 -5 1 -14 10 -19 15 -9 15 -10 -4 -16 -29 -10 -39 -2 -47
35 -9 38 11 56 36 33 19 -17 26 -10 25 26 -1 22 -5 25 -33 22 -29 -2 -33 1
-33 22 0 14 -4 28 -10 31 -5 3 -10 15 -10 26 0 10 5 19 10 19 24 0 6 27 -29
44 -29 14 -37 23 -34 37 4 13 -2 21 -18 28 -32 12 -47 -2 -51 -46 -2 -25 -8
-37 -20 -39 -25 -3 -44 24 -31 44 11 19 4 37 -34 85 -13 16 -23 38 -23 50 0
34 -12 43 -53 43 -20 0 -37 4 -38 10 0 13 -40 54 -48 50 -3 -2 -17 0 -30 5
l-24 10 32 33 33 34 -22 22 -22 22 -26 -26 c-19 -18 -26 -36 -27 -64 0 -22 -4
-39 -10 -38 -24 4 -35 20 -35 51 0 27 -6 37 -27 47 -15 7 -29 20 -31 29 -5 26
49 18 59 -8 7 -20 31 -27 37 -10 7 20 -2 36 -42 77 -31 31 -43 51 -39 65 10
45 8 50 -19 51 -22 1 -27 -3 -26 -25 0 -14 -1 -33 -3 -41 -2 -8 2 -14 9 -12 9
1 12 -9 10 -32 -2 -33 -3 -34 -27 -22 -15 8 -34 12 -43 11 -10 -2 -18 3 -18
11 0 8 -5 14 -12 14 -6 0 -19 7 -29 16 -20 18 -39 11 -39 -15 0 -10 -9 -26
-20 -36 -19 -17 -20 -17 -28 6 -7 17 -4 32 10 55 21 36 16 43 -37 48 -21 2
-39 -2 -46 -10 -15 -18 -33 -18 -49 0 -6 8 -24 16 -38 18 -16 2 -31 12 -37 25
-14 32 -43 36 -67 7 -24 -27 -42 -20 -52 20 -8 31 -56 52 -84 37 -38 -20 -67
-13 -93 22 -38 54 -93 96 -135 105 -42 9 -58 37 -27 49 35 12 53 36 53 70 0
28 -13 48 -87 126 -97 104 -175 205 -222 289 -38 68 -118 158 -166 188 -19 12
-47 43 -64 69 -16 27 -48 61 -72 77 -23 16 -54 41 -68 57 -36 37 -51 20 -51
-55 0 -73 -18 -243 -30 -283 -5 -16 -12 -95 -15 -175 -6 -127 -11 -158 -41
-254 -19 -59 -41 -118 -49 -129 -9 -13 -15 -44 -15 -80 0 -33 -8 -78 -18 -105
-29 -72 -42 -111 -62 -188 -10 -38 -32 -100 -49 -136 -17 -36 -31 -74 -31 -84
0 -10 -16 -46 -36 -79 -20 -33 -43 -82 -51 -110 -8 -27 -24 -60 -35 -72 -11
-12 -21 -38 -23 -59 -2 -22 -18 -58 -40 -90 -20 -29 -36 -63 -35 -76 4 -47 0
-56 -29 -63 -31 -7 -44 -26 -62 -95 -7 -25 -21 -57 -31 -72 -10 -14 -18 -42
-18 -62 0 -38 -30 -100 -61 -127 -21 -18 -27 -79 -8 -79 7 0 9 -12 5 -34 -9
-48 1 -65 42 -72 49 -9 72 -21 72 -39 0 -9 6 -24 13 -36 10 -17 9 -22 -7 -34
-11 -8 -30 -12 -47 -8 -22 4 -33 0 -49 -18 -27 -33 -25 -51 10 -71 16 -9 36
-32 43 -51 10 -22 24 -37 40 -41 25 -6 37 -30 37 -76 0 -14 9 -33 20 -43 13
-11 20 -29 20 -54 0 -21 8 -52 19 -69 20 -33 20 -48 1 -304 -12 -169 -25 -267
-39 -303 -6 -16 -11 -41 -11 -56 0 -16 -7 -34 -15 -41 -8 -7 -17 -28 -21 -49
-4 -20 -14 -45 -24 -56 -10 -11 -23 -37 -29 -57 -7 -21 -17 -40 -22 -43 -5 -4
-7 -16 -4 -28 4 -15 -3 -34 -19 -57 -14 -19 -31 -45 -37 -56 -6 -12 -21 -26
-33 -32 -13 -5 -69 -61 -127 -122 -57 -62 -113 -121 -124 -132 -11 -10 -76
-73 -143 -139 -107 -103 -128 -119 -157 -119 -18 0 -43 -8 -56 -19 -13 -10
-40 -26 -59 -36 -19 -9 -46 -28 -60 -41 -14 -13 -45 -30 -70 -39 -38 -14 -72
-32 -155 -83 -11 -7 -36 -19 -55 -28 -19 -9 -71 -33 -115 -54 -44 -21 -98 -41
-120 -45 -22 -4 -45 -11 -51 -15 -22 -19 -183 -68 -259 -80 -44 -7 -88 -17
-99 -22 -29 -16 -122 0 -154 26 -30 25 -65 45 -132 75 -75 34 -151 79 -225
134 -81 60 -99 72 -140 92 -16 8 -61 37 -100 65 -38 27 -90 62 -114 77 -49 32
-192 143 -236 184 -47 44 -111 96 -263 213 -87 67 -163 135 -196 175 -30 36
-92 102 -137 146 -45 44 -99 103 -120 131 -20 28 -56 66 -78 83 -78 62 -80 69
-86 257 -2 93 -9 193 -15 222 -12 66 -11 573 2 625 5 21 18 46 28 55 11 9 23
32 26 52 9 49 22 62 54 55 36 -8 58 17 42 48 -6 12 -12 31 -14 42 -2 11 -16
26 -31 33 -42 20 -51 45 -34 102 12 42 13 53 1 76 -16 31 -18 60 -4 69 6 3 10
19 10 34 0 36 35 81 64 81 12 0 27 5 34 12 7 7 12 8 12 4 0 -4 21 13 48 38 26
25 52 46 58 46 6 0 20 -11 32 -25 13 -14 27 -23 32 -20 5 3 14 -4 20 -15 7
-14 21 -20 43 -20 55 0 77 10 77 35 0 35 -24 49 -60 36 -28 -9 -32 -8 -40 15
-13 34 -13 38 11 68 12 15 22 41 23 58 2 20 11 37 29 50 15 11 27 24 27 29 0
12 -37 11 -45 -1 -13 -21 -25 2 -25 46 0 42 -2 45 -31 51 -17 3 -32 11 -35 17
-9 25 -11 111 -3 144 6 30 4 38 -11 49 -18 12 -17 15 5 60 18 35 21 50 13 60
-9 11 -14 10 -30 -7 -16 -17 -23 -19 -34 -9 -13 11 -12 16 9 36 22 23 23 28
13 70 -9 40 -8 47 9 59 10 8 29 14 42 14 35 0 52 67 22 86 -16 9 -79 -17 -89
-37 -21 -38 -35 -21 -36 41 -1 52 5 67 20 58 2 -2 13 5 24 15 13 12 18 26 14
45 -5 30 -21 54 -31 48 -3 -2 -14 4 -24 14 -16 16 -16 18 3 35 11 10 20 24 20
30 0 15 26 38 47 41 26 4 27 13 5 37 -12 13 -22 28 -22 34 0 16 40 48 48 38 4
-6 17 -16 29 -22 20 -11 23 -10 34 22 7 18 15 34 18 33 3 0 8 0 11 1 3 1 25 4
50 7 24 2 48 8 53 13 13 13 47 1 47 -15 0 -25 30 -28 55 -4 37 35 66 24 96
-38 25 -49 24 -66 -3 -67 -5 0 -7 -3 -5 -6 1 -3 -4 -13 -10 -21 -10 -12 -9
-19 8 -36 19 -21 75 -50 111 -57 19 -4 28 22 17 50 -4 11 -8 16 -9 10 -2 -12
-18 24 -19 42 -1 14 22 11 43 -6 9 -7 23 -11 31 -7 12 4 15 -2 15 -28 0 -42
21 -59 73 -61 31 -1 41 -5 39 -15 -3 -11 -1 -12 8 -3 14 13 62 -11 100 -52 12
-13 28 -21 34 -17 16 10 37 12 31 3 -5 -10 33 -46 58 -54 13 -5 28 4 53 31 18
20 34 33 34 28 0 -5 7 -3 15 4 19 15 65 5 66 -15 1 -8 2 -25 3 -37 0 -13 8
-24 17 -26 13 -2 15 3 12 23 -4 18 -1 25 11 25 9 0 16 -4 16 -8 0 -5 7 -9 15
-9 8 0 15 6 15 12 0 16 31 42 55 47 11 1 39 20 62 41 23 21 45 38 49 37 4 -1
10 3 13 8 3 6 17 12 31 13 31 5 58 48 38 61 -7 4 -10 8 -6 8 4 0 3 11 -2 25
-11 29 -4 31 36 10 16 -8 25 -15 20 -15 -5 0 -3 -7 4 -15 20 -24 49 -18 56 10
3 14 10 22 15 20 4 -3 17 3 29 15 11 11 30 22 42 24 23 3 56 48 57 77 2 32 29
29 49 -5 16 -27 25 -32 53 -31 19 1 41 5 49 8 8 3 22 5 30 6 8 0 32 2 53 5 21
2 42 -1 50 -7 6 -7 21 -14 32 -15 11 -2 31 -15 46 -28 29 -27 42 -30 58 -10
14 17 -2 32 -39 38 -20 2 -26 9 -28 38 -4 40 20 65 48 50 9 -5 36 -16 60 -24
41 -14 47 -14 85 3 22 10 49 28 59 40 24 27 46 12 46 -33 0 -35 15 -56 41 -56
15 0 29 23 44 77 5 18 10 21 23 14 39 -19 85 -21 104 -5 10 10 18 24 18 32 0
24 32 41 76 42 22 0 46 6 52 13 7 6 30 12 50 13 20 0 54 8 75 17 35 15 40 15
63 1 19 -13 27 -14 39 -4 8 7 15 16 15 21 0 25 37 90 55 95 11 3 30 10 42 16
17 8 29 8 47 0 20 -9 27 -7 40 7 9 10 16 25 16 34 0 13 10 17 46 17 39 0 45 2
40 18 -5 14 4 24 33 40 40 23 51 39 51 76 0 20 5 21 50 20 l50 -3 -6 42 c-7
41 -7 42 13 25 26 -24 32 -23 43 7 6 15 17 25 29 25 10 0 24 6 30 14 7 8 21
12 31 9 17 -4 20 0 20 26 0 21 7 35 24 47 15 9 22 21 19 30 -5 14 6 18 42 14
15 -2 17 1 7 12 -10 12 -2 22 41 57 28 23 59 54 68 69 14 24 22 27 70 27 l54
0 -3 34 c-2 31 -1 33 22 27 19 -5 29 0 45 20 12 15 21 32 21 38 0 6 16 28 35
49 19 21 35 42 35 48 0 5 4 9 10 9 5 0 17 8 27 19 10 10 28 22 41 26 l23 7 -6
-89 c-3 -48 -11 -109 -17 -135 -12 -48 -5 -75 12 -48 6 8 10 26 10 40 0 14 14
43 30 64 17 22 30 45 30 52 0 7 10 25 23 41 13 15 35 51 50 79 14 28 37 68 51
89 15 21 26 52 26 70 0 20 8 39 21 51 12 10 25 29 30 41 4 12 20 27 36 35 17
8 31 26 38 48 5 19 25 55 42 79 25 33 30 47 23 61 -7 13 -4 24 13 42 68 74
114 138 126 173 8 22 31 57 52 77 40 39 61 79 72 137 6 29 39 99 146 306 57
111 111 245 111 275 0 17 7 41 15 54 9 13 20 52 26 87 6 35 24 87 39 115 26
46 27 54 15 72 -13 18 -11 24 26 66 22 25 55 81 73 123 41 99 50 117 90 161
35 40 50 69 38 76 -4 2 -28 7 -53 11 -32 5 -48 3 -56 -7z m-193 -378 c0 -25
-18 -36 -26 -16 -8 21 3 49 16 41 5 -3 10 -15 10 -25z m-5146 -201 c-3 -5 -10
-7 -15 -3 -5 3 -7 10 -3 15 3 5 10 7 15 3 5 -3 7 -10 3 -15z m-282 -31 c14
-20 15 -21 41 -3 23 15 27 15 27 2 0 -8 -7 -17 -15 -21 -8 -3 -15 -12 -15 -20
0 -22 -73 6 -76 30 -6 38 16 45 38 12z m233 12 c-3 -5 -10 -10 -16 -10 -5 0
-9 5 -9 10 0 6 7 10 16 10 8 0 12 -4 9 -10z m42 -42 c-3 -8 -6 -5 -6 6 -1 11
2 17 5 13 3 -3 4 -12 1 -19z m-187 -58 c-8 -5 -18 -6 -24 -3 -5 4 -1 10 10 13
24 9 34 2 14 -10z m1150 -494 c0 -3 -13 -11 -30 -20 -31 -15 -39 -9 -18 12 11
11 48 17 48 8z m-165 -26 c3 -5 -1 -10 -9 -10 -9 0 -16 5 -16 10 0 6 4 10 9
10 6 0 13 -4 16 -10z m3740 -20 c-6 -9 -9 -9 -16 1 -10 17 0 34 13 21 6 -6 7
-16 3 -22z m-3775 1 c0 -12 -20 -25 -27 -18 -7 7 6 27 18 27 5 0 9 -4 9 -9z
m3697 -43 c-3 -7 -5 -2 -5 12 0 14 2 19 5 13 2 -7 2 -19 0 -25z m-3637 8 c0
-2 -7 -6 -15 -10 -8 -3 -15 -1 -15 4 0 6 7 10 15 10 8 0 15 -2 15 -4z m-260
-36 c0 -5 -5 -10 -11 -10 -5 0 -7 5 -4 10 3 6 8 10 11 10 2 0 4 -4 4 -10z
m3806 -67 c-10 -10 -19 5 -10 18 6 11 8 11 12 0 2 -7 1 -15 -2 -18z m-3189
-280 c-3 -10 -5 -4 -5 12 0 17 2 24 5 18 2 -7 2 -21 0 -30z m3062 -6 c-14 -31
-22 -33 -39 -12 -10 12 -8 14 9 10 17 -3 21 1 21 23 0 18 3 23 10 16 8 -8 7
-19 -1 -37z m-2947 -59 c-14 -14 -36 28 -27 50 5 14 9 12 22 -12 10 -19 11
-32 5 -38z m205 -160 c-3 -8 -6 -5 -6 6 -1 11 2 17 5 13 3 -3 4 -12 1 -19z
m2468 -107 c3 -5 1 -12 -5 -16 -5 -3 -10 1 -10 9 0 18 6 21 15 7z m-1629 -76
c-9 -23 -26 -9 -26 23 0 24 1 25 16 10 10 -9 14 -24 10 -33z m1524 15 c0 -5
-2 -10 -4 -10 -3 0 -8 5 -11 10 -3 6 -1 10 4 10 6 0 11 -4 11 -10z m-1450 -13
c0 -8 -9 -22 -20 -32 -22 -20 -27 -7 -10 26 12 22 30 25 30 6z m-90 -41 c0 -3
-4 -8 -10 -11 -5 -3 -10 -1 -10 4 0 6 5 11 10 11 6 0 10 -2 10 -4z m1080 -58
c0 -18 -2 -20 -9 -8 -6 8 -7 18 -5 22 9 14 14 9 14 -14z m-3580 -122 c0 -3 -4
-8 -10 -11 -5 -3 -10 -1 -10 4 0 6 5 11 10 11 6 0 10 -2 10 -4z m30 -290 c0
-2 -8 -10 -17 -17 -16 -13 -17 -12 -4 4 13 16 21 21 21 13z m-1660 -1040 c0
-27 -15 -42 -25 -26 -8 13 3 50 16 50 5 0 9 -11 9 -24z m1757 9 c0 -21 -33
-49 -42 -36 -3 6 1 11 11 11 10 0 14 3 11 7 -4 3 -2 12 4 20 14 17 16 16 16
-2z m-44 -82 c-3 -9 -9 -11 -15 -5 -5 5 -6 17 -2 26 5 13 9 14 14 5 5 -7 6
-19 3 -26z m1043 2 c3 -22 -12 -27 -27 -9 -10 13 -10 17 1 24 16 10 23 6 26
-15z m151 -8 c0 -8 -6 -14 -14 -14 -9 0 -10 4 -2 14 6 7 12 13 14 13 1 0 2 -6
2 -13z m-2347 -201 c0 -11 -19 -15 -25 -6 -3 5 1 10 9 10 9 0 16 -2 16 -4z
m504 -31 c3 -8 1 -15 -4 -15 -6 0 -13 -1 -17 -2 -3 -2 -7 5 -9 15 -3 21 22 23
30 2z m-73 -28 c-11 -29 -35 -28 -39 2 -2 14 0 21 6 17 6 -4 13 -2 17 4 11 19
24 0 16 -23z m-1888 -24 c8 -7 -21 -43 -35 -43 -4 0 -8 11 -8 25 0 18 5 25 18
25 10 0 22 -3 25 -7z m7649 -10 c21 -19 24 -43 5 -43 -14 0 -45 -29 -46 -42
-2 -16 -16 -10 -27 11 -6 11 -13 18 -16 16 -10 -10 -15 31 -7 53 10 27 63 30
91 5z m-6450 -150 c23 -24 25 -31 15 -48 -20 -33 -37 -29 -37 10 0 19 -4 35
-9 35 -5 0 -11 7 -15 15 -9 25 18 17 46 -12z m7065 -45 c-3 -8 -6 -5 -6 6 -1
11 2 17 5 13 3 -3 4 -12 1 -19z m-8684 -76 c22 -19 10 -48 -19 -48 -17 0 -26
7 -30 22 -10 41 15 54 49 26z m8991 -144 c3 -14 0 -18 -11 -14 -8 3 -17 6 -19
6 -2 0 -4 6 -4 13 0 21 28 16 34 -5z m134 -102 c1 -22 -2 -25 -23 -24 -27 3
-35 34 -13 56 16 16 33 0 36 -32z m-10293 -136 c-3 -5 -13 -10 -21 -10 -8 0
-14 5 -14 10 0 6 9 10 21 10 11 0 17 -4 14 -10z m10375 -26 c21 -21 22 -27 10
-34 -8 -5 -20 -10 -27 -10 -7 0 -18 -12 -25 -27 -16 -33 -68 -42 -68 -11 0 10
3 18 8 18 4 0 13 15 21 33 28 65 44 71 81 31z m120 -31 c0 -13 -3 -13 -15 -3
-8 7 -15 19 -15 27 0 13 3 13 15 3 8 -7 15 -19 15 -27z m880 -1 c0 -5 -9 -17
-19 -26 -14 -13 -21 -14 -27 -5 -4 7 -3 10 3 6 6 -4 13 2 16 13 5 19 27 29 27
12z m-678 -195 c2 -27 1 -53 -2 -57 -9 -15 -33 7 -37 32 -11 75 -12 74 12 74
21 0 24 -5 27 -49z m-162 -12 c0 -15 -6 -25 -14 -25 -8 0 -16 -6 -18 -14 -3
-13 -6 -13 -22 -1 -16 12 -17 17 -6 30 7 8 15 13 18 11 2 -3 11 1 19 9 20 20
23 19 23 -10z m1277 3 c13 -12 23 -28 23 -35 0 -8 5 -11 10 -8 6 3 10 -1 10
-11 0 -14 2 -15 18 -3 14 11 13 10 -2 -9 -11 -12 -25 -22 -33 -22 -7 0 -13 -4
-13 -10 0 -16 -37 -12 -54 6 -9 8 -13 20 -10 26 3 5 -3 16 -15 24 -23 16 -27
34 -11 50 17 17 54 14 77 -8z m-8497 2 c0 -5 -2 -10 -4 -10 -3 0 -8 5 -11 10
-3 6 -1 10 4 10 6 0 11 -4 11 -10z m8600 -51 c0 -11 -4 -18 -10 -14 -5 3 -7
12 -3 20 7 21 13 19 13 -6z m-1350 -67 c0 -14 -3 -22 -7 -19 -3 4 -12 2 -18
-3 -10 -8 -14 -1 -17 30 -2 23 -2 43 1 46 10 10 41 -31 41 -54z m100 -36 c0
-3 -4 -8 -10 -11 -5 -3 -10 -1 -10 4 0 6 5 11 10 11 6 0 10 -2 10 -4z m-11802
-30 c3 -12 -1 -17 -10 -14 -7 3 -15 13 -16 22 -3 12 1 17 10 14 7 -3 15 -13
16 -22z m-591 -68 c-3 -8 -6 -5 -6 6 -1 11 2 17 5 13 3 -3 4 -12 1 -19z
m13923 -33 c0 -31 -11 -38 -32 -18 -21 19 -23 34 -6 51 16 16 38 -3 38 -33z
m-1380 26 c0 -10 19 -9 38 2 16 11 28 -21 13 -36 -16 -16 -41 -17 -41 -1 0 8
-5 13 -11 12 -6 -2 -13 5 -14 15 -2 9 1 17 6 17 5 0 9 -4 9 -9z m1105 -38 c-9
-37 -36 -55 -50 -34 -3 5 -1 12 5 16 6 4 8 11 5 16 -4 5 1 9 9 9 9 0 16 5 16
10 0 6 5 10 11 10 7 0 9 -10 4 -27z m157 -98 c-12 -22 -27 -2 -18 22 5 12 10
13 17 6 7 -7 8 -17 1 -28z m1232 -40 c-1 -18 -4 -37 -8 -44 -11 -17 -29 -2
-23 20 3 11 1 17 -4 13 -12 -7 -11 20 1 32 20 20 35 11 34 -21z m-2434 -1 c0
-8 5 -12 10 -9 6 3 10 -2 10 -11 0 -15 -4 -14 -25 6 -13 12 -22 27 -19 32 8
12 24 0 24 -18z m360 -119 c0 -7 -7 -18 -15 -25 -8 -7 -15 -8 -15 -2 0 5 -3
25 -7 43 l-6 34 21 -19 c12 -11 22 -25 22 -31z m2296 -27 c9 -29 2 -30 -36 -6
-32 19 -33 22 -15 28 26 10 43 3 51 -22z m-328 -17 c-2 -13 -7 -18 -15 -13 -7
4 -10 17 -6 31 7 28 26 13 21 -18z m-1742 -13 c15 -19 16 -20 2 -9 -10 7 -18
10 -18 7 0 -4 -5 -4 -10 -1 -6 4 -8 11 -5 16 8 12 9 12 31 -13z m-307 -32 c8
-10 8 -16 -2 -25 -16 -13 -27 -5 -27 21 0 21 13 23 29 4z m2341 -12 c0 -17
-43 -19 -58 -1 -8 9 -2 12 24 14 24 1 34 -2 34 -13z m-1065 -3 c3 -5 1 -12 -5
-16 -6 -4 -8 -11 -4 -16 3 -6 3 -17 -1 -27 -5 -14 -8 -12 -19 8 -17 34 10 81
29 51z m662 -43 c-3 -8 -6 -5 -6 6 -1 11 2 17 5 13 3 -3 4 -12 1 -19z m511
-16 c7 -5 14 -22 15 -38 2 -25 -1 -29 -27 -29 -40 0 -56 27 -32 54 21 23 25
24 44 13z m-228 -27 c0 -22 -3 -23 -24 -15 -13 5 -27 6 -32 2 -4 -4 -4 -1 0 6
6 11 33 26 54 31 1 1 2 -10 2 -24z m-1087 -12 c-3 -7 -9 -13 -14 -13 -5 0 -9
6 -9 13 0 8 6 14 14 14 8 0 12 -6 9 -14z m354 -60 c-12 -13 -15 -13 -14 -2 2
8 7 21 12 29 7 11 10 11 13 1 2 -7 -3 -20 -11 -28z m824 -30 c14 -37 -7 -60
-32 -37 -22 19 -24 45 -7 62 14 14 27 7 39 -25z m409 -305 c0 -4 -4 -8 -9 -8
-6 0 -12 4 -15 8 -3 5 1 9 9 9 8 0 15 -4 15 -9z m-10 -53 c0 -8 -4 -17 -10
-20 -6 -4 -10 5 -10 20 0 15 4 24 10 20 6 -3 10 -12 10 -20z m-166 -1 c9 -22
-3 -32 -14 -14 -12 19 -12 30 -1 30 5 0 12 -7 15 -16z m-14 -99 c-16 -19 -30
-19 -30 0 0 17 33 38 38 24 2 -5 -2 -16 -8 -24z m250 -15 c0 -12 -36 -40 -43
-33 -12 11 -8 41 6 46 15 5 37 -2 37 -13z m-16634 -157 c-7 -17 -8 -17 -17 0
-12 21 -2 44 13 29 6 -6 8 -19 4 -29z m16614 -39 c0 -8 -5 -12 -10 -9 -6 4 -8
11 -5 16 9 14 15 11 15 -7z"/>
<path d="M9084 11173 c-8 -9 -20 -27 -25 -40 -5 -13 -20 -28 -34 -33 -14 -5
-25 -16 -25 -25 0 -22 42 -19 73 5 21 17 25 27 20 50 -5 26 -2 30 16 30 24 0
28 15 6 24 -8 3 -22 -2 -31 -11z"/>
<path d="M9217 11063 c-11 -10 -8 -43 3 -43 6 0 10 11 10 25 0 26 -2 29 -13
18z"/>
<path d="M9275 11039 c-10 -15 3 -25 16 -12 7 7 7 13 1 17 -6 3 -14 1 -17 -5z"/>
<path d="M8342 10975 c-25 -18 -29 -35 -8 -35 17 0 39 26 34 40 -2 6 -12 4
-26 -5z"/>
<path d="M8360 10865 c0 -9 5 -15 11 -13 6 2 11 8 11 13 0 5 -5 11 -11 13 -6
2 -11 -4 -11 -13z"/>
<path d="M7695 10834 c-8 -20 -15 -50 -15 -66 l0 -29 25 18 c29 21 40 52 31
88 -9 35 -23 31 -41 -11z"/>
<path d="M10123 10846 c-38 -44 -55 -76 -49 -92 3 -8 10 -13 15 -10 15 9 41
-5 41 -21 0 -10 7 -14 20 -10 30 8 32 -5 4 -56 -19 -37 -21 -47 -10 -47 8 0
18 5 21 10 10 17 25 11 25 -10 0 -14 5 -18 16 -13 14 5 16 2 10 -21 -5 -19 -2
-36 9 -52 8 -13 12 -24 9 -24 -4 0 1 -9 11 -20 12 -13 29 -20 44 -18 22 3 26
-1 26 -25 1 -34 22 -50 47 -36 10 6 22 8 27 5 11 -7 21 -158 12 -198 -10 -42
-4 -58 20 -58 16 0 19 -7 19 -44 0 -25 -4 -48 -10 -51 -5 -3 -10 -13 -10 -22
0 -28 66 66 78 112 11 40 16 45 54 56 45 13 98 54 98 75 0 7 14 24 32 39 l32
27 13 -26 c17 -33 22 -32 49 1 19 24 24 26 39 13 15 -12 19 -12 30 3 15 20 35
22 35 3 0 -7 7 -19 15 -26 12 -10 15 -9 15 7 0 10 9 37 21 58 21 42 20 105 -3
133 -9 10 -7 17 4 28 14 14 16 10 22 -39 8 -59 30 -93 42 -63 3 9 3 23 0 32
-3 8 1 29 10 45 12 25 18 28 30 18 8 -6 14 -10 15 -8 6 43 3 83 -7 94 -21 21
-17 35 11 35 18 0 26 -7 31 -25 3 -14 10 -25 14 -25 10 0 25 -40 22 -57 -2 -7
2 -13 8 -13 8 0 9 11 4 33 -4 17 -8 41 -10 52 -1 11 -3 22 -3 26 -1 3 -16 22
-35 42 -26 29 -41 37 -67 37 -19 0 -52 6 -74 14 -47 16 -230 35 -405 41 -183
7 -222 12 -231 27 -8 12 -13 4 -10 -14 2 -12 -53 -5 -64 9 -5 6 -23 13 -40 15
-20 2 -30 8 -30 20 0 33 -20 40 -42 14z m17 -45 c0 -12 -20 -25 -27 -18 -7 7
6 27 18 27 5 0 9 -4 9 -9z m48 -13 c-6 -18 -28 -21 -28 -4 0 9 7 16 16 16 9 0
14 -5 12 -12z m832 -134 c0 -14 -25 -13 -41 3 -7 7 -9 19 -5 29 6 16 8 16 26
-1 11 -10 20 -24 20 -31z"/>
<path d="M8452 10797 c-14 -40 -15 -55 -3 -41 9 9 26 74 19 74 -2 0 -9 -15
-16 -33z"/>
<path d="M7640 10654 c0 -8 5 -12 10 -9 6 3 10 10 10 16 0 5 -4 9 -10 9 -5 0
-10 -7 -10 -16z"/>
<path d="M7660 10590 c0 -13 18 -22 24 -11 3 5 -1 11 -9 15 -8 3 -15 1 -15 -4z"/>
<path d="M12690 10501 c0 -6 5 -13 10 -16 6 -3 10 1 10 9 0 9 -4 16 -10 16 -5
0 -10 -4 -10 -9z"/>
<path d="M12816 10501 c-4 -7 -5 -15 -2 -18 9 -9 19 4 14 18 -4 11 -6 11 -12
0z"/>
<path d="M12770 10435 c0 -8 5 -15 10 -15 6 0 10 7 10 15 0 8 -4 15 -10 15 -5
0 -10 -7 -10 -15z"/>
<path d="M12436 10141 c-4 -7 -5 -15 -2 -18 9 -9 19 4 14 18 -4 11 -6 11 -12
0z"/>
<path d="M10176 9771 c-13 -15 -16 -25 -9 -32 13 -13 36 14 31 37 -3 14 -6 13
-22 -5z"/>
<path d="M12295 9750 c3 -5 8 -10 11 -10 2 0 4 5 4 10 0 6 -5 10 -11 10 -5 0
-7 -4 -4 -10z"/>
<path d="M9702 9733 c2 -10 13 -19 26 -21 12 -2 22 -8 22 -13 0 -6 5 -7 10 -4
16 10 12 42 -6 49 -31 12 -56 7 -52 -11z"/>
<path d="M9641 9680 c-13 -11 -18 -20 -13 -20 18 0 62 23 62 32 0 14 -24 8
-49 -12z"/>
<path d="M9798 9664 c-5 -4 -8 -16 -8 -28 0 -14 3 -17 11 -9 6 6 9 19 7 28 -1
9 -6 13 -10 9z"/>
<path d="M10700 9514 c0 -13 18 -39 24 -34 2 3 -2 14 -10 24 -8 11 -14 16 -14
10z"/>
<path d="M12016 8801 c-4 -5 -2 -12 3 -15 5 -4 12 -2 15 3 4 5 2 12 -3 15 -5
4 -12 2 -15 -3z"/>
<path d="M7180 8389 c0 -5 5 -7 10 -4 6 3 10 8 10 11 0 2 -4 4 -10 4 -5 0 -10
-5 -10 -11z"/>
<path d="M7305 8360 c-18 -6 -18 -8 8 -34 15 -15 32 -24 37 -21 29 18 -12 68
-45 55z"/>
<path d="M7242 8222 c-12 -2 -27 -12 -32 -23 -6 -10 -17 -19 -25 -19 -16 0
-35 -30 -35 -54 0 -18 49 -46 80 -46 12 0 34 9 50 20 15 11 30 16 34 13 21
-22 31 -7 32 48 1 33 -2 60 -5 60 -17 4 -79 4 -99 1z"/>
<path d="M7407 8193 c-9 -14 6 -30 26 -30 9 0 17 7 17 15 0 9 -3 12 -7 9 -3
-4 -12 -2 -19 4 -7 5 -15 6 -17 2z"/>
<path d="M6775 8060 c-23 -24 -27 -34 -19 -47 12 -19 79 -30 88 -14 8 12 -16
83 -29 88 -6 2 -24 -10 -40 -27z"/>
<path d="M10255 7981 c-3 -5 -1 -12 5 -16 5 -3 10 1 10 9 0 18 -6 21 -15 7z"/>
<path d="M9990 7955 c-7 -8 -16 -13 -20 -10 -13 8 -18 -8 -10 -31 10 -25 37
-34 69 -23 17 7 22 15 19 35 -4 33 -40 50 -58 29z"/>
<path d="M7007 7933 c-16 -15 -6 -33 18 -33 18 0 25 5 25 20 0 20 -28 28 -43
13z"/>
<path d="M8460 7899 c0 -5 5 -9 10 -9 6 0 12 0 15 0 14 0 8 13 -7 16 -10 1
-18 -2 -18 -7z"/>
<path d="M6772 7818 c-16 -16 -15 -38 2 -38 19 0 29 17 16 25 -6 4 -8 11 -5
16 8 13 1 11 -13 -3z"/>
<path d="M6645 7760 c-13 -25 -12 -29 5 -45 11 -10 17 -21 15 -25 -5 -8 19
-32 26 -26 2 2 3 31 1 63 -4 67 -23 80 -47 33z"/>
<path d="M9712 7777 c-5 -7 -12 -27 -15 -44 -5 -26 -2 -35 13 -43 15 -8 20 -8
20 2 0 6 14 27 32 45 17 18 30 35 27 37 -11 11 -69 13 -77 3z"/>
<path d="M5449 7643 c-10 -26 -4 -62 8 -50 7 8 14 77 7 77 -2 0 -9 -12 -15
-27z"/>
<path d="M9436 7581 c-3 -5 -8 -24 -10 -42 -3 -19 -7 -41 -11 -50 -9 -23 15
-38 43 -28 18 7 22 16 21 51 0 24 -3 50 -7 58 -8 17 -29 24 -36 11z"/>
<path d="M13595 7540 c-7 -12 2 -30 16 -30 12 0 12 27 0 35 -5 3 -12 1 -16 -5z"/>
<path d="M9253 7529 c-24 -9 -22 -39 3 -60 17 -14 27 6 22 44 -2 21 -6 23 -25
16z"/>
<path d="M5209 7515 c0 0 -2 -12 -4 -28 -2 -15 0 -25 5 -22 5 3 12 0 16 -7 5
-8 10 -6 15 8 14 35 10 53 -11 51 -11 -1 -20 -1 -21 -2z"/>
<path d="M13841 7474 c0 -11 3 -14 6 -6 3 7 2 16 -1 19 -3 4 -6 -2 -5 -13z"/>
<path d="M9587 7453 c-4 -3 -7 -16 -7 -29 0 -19 5 -22 35 -22 39 0 45 16 17
41 -20 18 -34 21 -45 10z"/>
<path d="M4766 7352 c-3 -5 1 -9 9 -9 8 0 15 4 15 9 0 4 -4 8 -9 8 -6 0 -12
-4 -15 -8z"/>
<path d="M14341 7119 c-21 -8 -23 -14 -18 -46 7 -40 13 -48 43 -57 14 -4 30 0
44 12 19 15 21 23 14 45 -5 15 -12 26 -15 25 -4 -2 -15 4 -25 13 -14 13 -25
14 -43 8z"/>
<path d="M1562 6847 c0 -40 5 -80 10 -89 11 -22 44 -24 52 -3 10 27 -11 103
-37 134 l-25 30 0 -72z"/>
<path d="M3475 6810 c3 -5 8 -10 11 -10 2 0 4 5 4 10 0 6 -5 10 -11 10 -5 0
-7 -4 -4 -10z"/>
<path d="M8441 6776 c-29 -16 -35 -40 -15 -57 21 -17 47 10 42 44 -3 24 -5 25
-27 13z"/>
<path d="M3095 6623 c2 -10 4 -19 4 -21 1 -5 31 26 31 32 0 3 -9 6 -19 6 -13
0 -18 -6 -16 -17z"/>
<path d="M14938 6605 c-12 -14 -27 -25 -33 -25 -11 0 -12 -21 -7 -67 3 -18 52
-12 52 6 0 8 3 11 6 8 4 -4 20 3 35 14 22 16 28 26 25 46 -6 31 -8 33 -35 38
-14 3 -29 -4 -43 -20z"/>
<path d="M14990 6497 c0 -1 9 -10 19 -19 18 -15 19 -15 24 3 4 15 0 19 -19 19
-13 0 -24 -1 -24 -3z"/>
<path d="M15129 6474 c-13 -16 -14 -84 -1 -93 4 -3 7 -16 6 -29 -1 -12 2 -25
6 -27 11 -7 33 22 27 37 -2 7 2 25 10 40 7 15 11 39 7 52 -7 29 -38 40 -55 20z"/>
<path d="M15233 6243 c-16 -6 -17 -63 -2 -63 16 0 38 31 39 53 0 17 -13 20
-37 10z"/>
<path d="M15575 6148 c-7 -15 -19 -22 -40 -23 -16 0 -36 -4 -43 -8 -21 -14 5
-36 35 -31 35 7 43 12 43 30 0 8 5 12 10 9 13 -8 25 24 14 35 -6 6 -13 1 -19
-12z"/>
<path d="M15680 6116 c0 -8 6 -18 13 -23 24 -15 37 -11 37 13 0 19 -5 24 -25
24 -15 0 -25 -6 -25 -14z"/>
<path d="M16191 6017 c-8 -10 -7 -14 4 -14 8 0 15 6 15 14 0 7 -2 13 -4 13 -2
0 -9 -6 -15 -13z"/>
<path d="M15597 6000 c3 -11 7 -20 9 -20 2 0 4 9 4 20 0 11 -4 20 -9 20 -5 0
-7 -9 -4 -20z"/>
<path d="M1060 5755 c-20 -52 -8 -71 25 -39 18 18 17 55 -2 62 -7 2 -17 -8
-23 -23z"/>
<path d="M17811 5654 c1 -5 -1 -17 -6 -27 -4 -10 -5 -21 -1 -24 3 -4 6 1 6 11
0 9 4 15 9 11 17 -10 21 12 5 26 -8 7 -14 8 -13 3z"/>
<path d="M10190 719 c-32 -13 -96 -74 -126 -121 -53 -83 -14 -66 109 47 86 78
91 103 17 74z"/>
<path d="M10010 519 c0 -5 5 -7 10 -4 6 3 10 8 10 11 0 2 -4 4 -10 4 -5 0 -10
-5 -10 -11z"/>
<path d="M10070 393 c-14 -9 -58 -47 -98 -85 -86 -81 -202 -158 -238 -158 -26
0 -76 43 -100 85 -11 19 -14 18 -57 -22 -60 -55 -157 -103 -221 -110 -44 -4
-56 -1 -85 21 -40 30 -54 32 -71 11 -22 -27 -101 -64 -149 -71 -63 -8 -102 12
-126 65 -10 23 -24 41 -30 41 -7 0 -31 -18 -53 -39 -42 -41 -155 -101 -190
-101 -51 0 -121 53 -122 92 -1 48 -23 60 -65 32 -19 -12 -39 -14 -87 -10 l-63
7 -77 -76 -78 -75 853 0 853 0 30 31 c33 35 166 129 207 147 33 14 36 48 6 86
-18 23 -20 34 -14 86 4 33 5 60 3 60 -2 0 -15 -8 -28 -17z"/>
<path d="M9428 347 c-30 -24 -37 -57 -14 -57 15 0 56 50 56 69 0 16 -12 13
-42 -12z"/>
<path d="M7965 272 c-69 -34 -64 -26 -128 -204 l-24 -68 118 0 119 0 0 35 c0
20 10 49 25 71 28 41 32 64 11 64 -27 0 -44 38 -38 85 6 54 -5 56 -83 17z"/>
</g>
</svg>
